<svg width="45" height="50" xmlns="http://www.w3.org/2000/svg" xmlns:xlink="http://www.w3.org/1999/xlink">
 <defs>
  <path d="m0,0l340.16,0l0,113.39l-340.16,0l0,-113.39z" id="a"/>
 </defs>
 <clipPath id="b">
  <use id="svg_1" overflow="visible" xlink:href="#a"/>
 </clipPath>
 <g>
  <title>Layer 1</title>
  <path id="svg_2" d="m9.29204,40.1673s1.58,-1.172 1.733,-1.885c0.153,-0.715 -0.969,-3.211 -2.243,-4.383c-1.273,-1.172 -3.668,-1.224 -4.229,0c-0.56,1.223 -0.662,1.844 -1.985,3.214c-1.322,1.37 -1.818,1.535 -0.944,2.739c0.873,1.204 5.856,6.187 12.231,8.123c1.208,0.367 4.109,1.417 8.69,1.417s10.815,-1.252 16.624,-5.597c0.825,-0.617 4.621,-3.64 4.77,-4.983c0.118,-1.062 -1.228,-1.888 -2.03,-3.305c-0.804,-1.417 -1.016,-3.755 -4.322,-2.503c-0.267,0.1 -0.904,0.44 -1.227,0.991c-0.324,0.551 -1.205,1.724 -1.842,2.409c-0.639,0.685 -0.52,1.533 -0.048,2.102c0.28,0.334 1.63,1.439 1.63,1.439c-4.109,2.717 -7.431,4.356 -13.484,4.487c-0.639,0.014 -6.943,0.379 -13.324,-4.265" fill="#FFF" clip-path="url(#b)"/>
  <path id="svg_3" d="m5.04504,22.6123s-0.078,8.483 6.421,14.982c5.274,5.274 11.084,6.269 11.084,6.269l0,-28.589l-17.505,0l0,7.338z" fill="#00B48D" clip-path="url(#b)"/>
  <path id="svg_4" d="m40.05404,22.6123s0.078,8.483 -6.421,14.982c-5.275,5.274 -11.083,6.269 -11.083,6.269l0,-28.589l17.504,0l0,7.338z" fill="#009CD5" clip-path="url(#b)"/>
  <path id="svg_5" d="m5.04004,1.1493l35.014,0l0,14.125l-35.014,0l0,-14.125z" fill="#EF4123" clip-path="url(#b)"/>
  <path id="svg_6" d="m34.57604,34.9203l-9.549,0s-0.209,2.165 -2.365,2.117c-2.41,-0.054 -2.365,-2.117 -2.365,-2.117l-9.381,0l0,-17.071l23.66,0l0,17.071z" fill="#FFD530" clip-path="url(#b)"/>
  <path id="svg_7" d="m13.71004,17.0713s0.956,0.707 2.299,0.512c1.344,-0.194 3.927,-1.556 5.412,-0.778c1.486,0.778 1.274,0.567 1.274,0.567s1.539,-1.592 3.944,-0.991c2.405,0.601 2.369,1.282 3.591,1.149c1.255,-0.137 1.485,-0.529 1.485,-0.529l0,14.758s-0.866,0.946 -2.759,0.557c-1.893,-0.389 -3.325,-1.786 -6.296,0.177c0,0 -1.68,-1.203 -3.449,-0.901c-1.769,0.301 -3.598,1.7 -5.681,0.576l0.038,-14.796l0.142,-0.301z" fill="#FFF" clip-path="url(#b)"/>
  <path id="svg_8" d="m34.60904,12.5293c0.406,-0.009 0.697,0.112 0.917,0.294c-0.012,0.023 -0.024,0.049 -0.037,0.072c-0.269,0.086 -0.471,0.367 -0.697,0.331c-0.163,-0.051 -0.151,-0.092 -0.256,-0.183c-0.007,-0.222 0.015,-0.38 0.073,-0.514m-26.785,-1.651c0.576,0.098 1.006,0.764 1.285,1.174l0,0.037l-0.184,0c-0.582,-0.176 -1.106,-0.178 -1.321,-0.734c0.065,-0.222 0.111,-0.325 0.22,-0.477m5.67,-6.274c-0.049,-0.013 -0.171,-0.02 -0.221,-0.031c-0.097,0.322 0.15,0.677 0.459,0.801l0.257,0.037l0.22,-0.33c0.031,-0.067 0.013,-0.129 -0.14,-0.098c0,0 -0.227,-0.238 -0.575,-0.379" fill="#FFD400" clip-path="url(#b)"/>
  <path id="svg_9" d="m22.47404,17.3583l0.229,0l0,15.115l-0.229,0l0,-15.115z" fill="#785342" clip-path="url(#b)"/>
  <path id="svg_10" d="m39.89804,15.0683l-34.628,0l0,-13.743l34.627,0l0,13.743l0.001,0zm0.041,6.071c0,8.34 -4.202,14.563 -8.531,18.127c-3.511,2.889 -7.288,4.116 -8.531,4.325l-0.045,-6.422a1.393,1.393 0 0 1 -0.382,-0.075l0.01,6.492c-3.303,-0.242 -17.191,-6.449 -17.191,-22.448l0,-5.689l17.152,0l-0.004,2.129c0.103,0.168 0.248,0.199 0.386,0.092l0,-2.221l17.136,0l0,5.69zm-35.052,-20.195l0,20.195c0,8.877 4.166,14.498 7.661,17.648c4.162,3.753 9.287,5.299 10.008,5.299c0.847,0 5.139,-1.575 7.79,-3.472c4.761,-3.406 9.78,-9.653 9.933,-19.475l0,-20.195l-35.392,0z" fill="#3E1F0C" clip-path="url(#b)"/>
  <path id="svg_11" d="m44.05004,38.1693c-0.124,-0.401 -0.312,-0.625 -0.654,-1.031a20.036,20.036 0 0 1 -1.198,-1.546c-0.406,-0.575 -0.642,-1.081 -0.851,-1.526c-0.379,-0.813 -0.653,-1.399 -1.617,-1.563c-1.118,-0.19 -2.073,0.205 -2.89,0.811c-0.258,0.426 -0.527,0.836 -0.805,1.233c0.975,-1.021 2.146,-1.92 3.631,-1.667c0.766,0.129 0.969,0.563 1.335,1.348c0.204,0.437 0.459,0.981 0.885,1.584c0.555,0.787 0.938,1.241 1.217,1.573c0.33,0.392 0.481,0.569 0.581,0.897c0.146,0.473 0.081,1.112 -1.366,2.56c-3.928,3.928 -8.673,6.547 -14.104,7.784c-1.973,0.449 -5.678,0.604 -5.716,0.605c-0.021,-0.002 -3.727,-0.156 -5.699,-0.605c-8.008,-1.824 -12.232,-6.055 -13.62,-7.444l-0.072,-0.071c-1.306,-1.307 -1.829,-1.857 -1.66,-2.408c0.083,-0.266 0.275,-0.449 0.595,-0.752c0.376,-0.354 0.89,-0.842 1.545,-1.768c0.422,-0.599 0.679,-1.144 0.886,-1.58c0.367,-0.775 0.588,-1.243 1.359,-1.374c1.194,-0.202 1.995,0.199 2.707,0.854a23.24,23.24 0 0 1 -0.528,-0.862c-0.609,-0.35 -1.329,-0.523 -2.243,-0.368c-0.967,0.164 -1.249,0.761 -1.64,1.587c-0.211,0.447 -0.451,0.952 -0.853,1.523a10.372,10.372 0 0 1 -1.496,1.711c-0.34,0.322 -0.585,0.555 -0.697,0.917c-0.244,0.792 0.424,1.46 1.755,2.79l0.071,0.072c1.408,1.409 5.69,5.697 13.806,7.547c2.007,0.458 5.632,0.607 5.784,0.613c0.169,-0.006 3.794,-0.155 5.801,-0.613c5.502,-1.254 10.31,-3.908 14.289,-7.887c1.302,-1.304 1.713,-2.129 1.462,-2.944m-33.831,-0.403c0.008,0.393 -0.207,0.608 -0.422,0.647c-0.242,0.043 -0.598,-0.125 -0.808,-0.733c-0.35,-1.01 -1.15,-2.313 -1.184,-2.368l-0.144,-0.232s-1.321,1.68 -1.567,1.99c-0.527,-0.716 -0.83,-1.395 -0.83,-1.981c0,-0.028 0,-0.057 0.002,-0.085c0.025,-0.504 0.188,-0.823 0.497,-0.976c0.696,-0.344 1.98,0.248 2.245,0.432c1.603,1.103 2.193,2.431 2.211,3.306m28.173,-2.583l-0.145,0.111a5.472,5.472 0 0 0 -1.478,1.938c-0.244,0.543 -0.835,0.942 -1.291,0.872c-0.391,-0.06 -0.516,-0.439 -0.552,-0.747c-0.108,-0.918 0.7,-2.067 2.16,-3.07c0.328,-0.227 1.877,-0.979 2.625,-0.607c0.279,0.139 0.425,0.422 0.446,0.869l0.002,0.086c0,0.545 -0.247,1.169 -0.685,1.83c-0.222,-0.265 -1.082,-1.282 -1.082,-1.282m-32.798,-1.498c-0.438,0.216 -0.677,0.653 -0.71,1.299c-0.12,2.37 4.055,5.989 9.305,8.069a22.212,22.212 0 0 0 8.318,1.591c3.084,0 6.535,-0.778 8.352,-1.547c4.861,-2.059 9.811,-5.825 9.68,-8.568c-0.028,-0.589 -0.249,-0.991 -0.658,-1.192c-0.991,-0.492 -2.733,0.441 -3.012,0.634c-1.602,1.103 -2.449,2.353 -2.322,3.431c0.072,0.611 0.39,1.006 0.873,1.08c0.633,0.098 1.379,-0.383 1.698,-1.094a5.205,5.205 0 0 1 1.224,-1.672l0.901,1.068c-0.704,0.947 -1.785,1.959 -3.122,2.933c-0.179,-0.139 -1.116,-0.872 -1.501,-1.288c-0.446,-0.48 -0.481,-1.154 -0.132,-1.899c-0.198,0.228 -0.398,0.45 -0.602,0.665c-0.076,0.568 0.071,1.082 0.453,1.494c0.364,0.394 1.151,1.02 1.457,1.26a27.828,27.828 0 0 1 -5.086,2.797c-1.782,0.754 -5.171,1.518 -8.203,1.518c-2.844,0 -5.519,-0.512 -8.177,-1.564a25.191,25.191 0 0 1 -4.787,-2.516c0.309,-0.281 1.019,-0.93 1.366,-1.305c0.312,-0.339 0.432,-0.796 0.375,-1.318a24.227,24.227 0 0 1 -0.521,-0.563c0.244,0.663 0.211,1.248 -0.135,1.621c-0.36,0.389 -1.154,1.111 -1.409,1.341c-1.198,-0.844 -2.193,-1.729 -2.885,-2.575l1.286,-1.634c0.247,0.423 0.757,1.333 1.007,2.056c0.289,0.838 0.847,1.054 1.237,0.983c0.445,-0.079 0.748,-0.503 0.737,-1.031c-0.02,-0.97 -0.654,-2.429 -2.377,-3.612c-0.231,-0.162 -1.698,-0.922 -2.63,-0.462" fill="#3E1F0C" clip-path="url(#b)"/>
  <path id="svg_12" d="m5.38104,38.8973l0.64,-0.326s0.152,-0.051 -0.287,-0.068c-0.046,-0.425 -0.367,-0.873 -1.13,-0.791c-0.764,0.081 -0.477,0.928 -0.437,1.268c0.042,0.342 0.014,1.295 -0.531,1.254c-0.546,-0.041 -0.491,-0.98 -0.436,-1.213c-0.232,0.123 -0.695,0.426 -0.736,0.45c-0.018,0.011 0.011,0.028 0.078,0.024c0.093,-0.006 0.238,-0.03 0.236,0.027c-0.002,0.043 0.299,0.916 0.885,0.875c0.586,-0.041 0.968,-0.342 0.954,-1.063c-0.013,-0.722 -0.285,-1.368 0.193,-1.449c0.477,-0.081 0.7,0.63 0.571,1.012m0.035,1.494l1.069,-0.729l-0.502,1.205l-0.567,-0.476zm1.583,-0.928l-0.326,-0.251l-2.423,1.605c-0.051,0.035 -0.199,0.025 -0.304,-0.01c-0.079,-0.025 -0.079,0.016 -0.046,0.046c0.041,0.036 0.481,0.452 0.529,0.489c0.047,0.039 0.071,-0.004 0.045,-0.037c-0.026,-0.035 -0.143,-0.162 -0.031,-0.25c0.047,-0.036 0.39,-0.266 0.806,-0.55l0.648,0.571l-0.404,0.971c-0.035,0.076 -0.258,-0.02 -0.258,-0.02s-0.079,0.001 -0.022,0.055c0.17,0.16 0.578,0.515 0.613,0.545c0.048,0.041 0.092,-0.014 0.044,-0.054c-0.058,-0.05 -0.092,-0.146 0.075,-0.551l1.054,-2.559m11.551,7.228c0.277,-0.577 0.613,-1.167 0.613,-1.167l0.242,1.225l-0.855,-0.058zm0.868,-1.645l-0.313,-0.021s-1.293,2.382 -1.414,2.624c-0.027,0.057 -0.159,0.123 -0.268,0.145c-0.082,0.018 -0.06,0.054 -0.017,0.063c0.054,0.011 0.642,0.15 0.703,0.158c0.06,0.01 0.059,-0.039 0.02,-0.055c-0.04,-0.018 -0.206,-0.067 -0.152,-0.2c0.023,-0.056 0.247,-0.423 0.464,-0.878l0.995,0.09l0.188,0.996c0.02,0.081 -0.213,0.146 -0.211,0.146c0,0 -0.062,0.052 0.016,0.058c0.233,0.018 0.771,0.037 0.819,0.038c0.063,0.002 0.063,-0.068 0,-0.07c-0.077,-0.002 -0.173,0.045 -0.245,-0.389c-0.077,-0.47 -0.585,-2.705 -0.585,-2.705m-13.411,-2.346s0.506,0.37 0.547,0.398c0.041,0.029 0.081,0.006 0.047,-0.048c-0.035,-0.055 -0.167,-0.162 0.109,-0.501c0.276,-0.338 1.406,-1.895 1.406,-1.895s0.963,0.578 0.501,1.334c-0.406,0.665 -1.23,0.213 -1.48,-0.016c-0.151,-0.139 -0.151,0.063 -0.151,0.063s0.327,0.289 0.615,0.389c0.289,0.101 1.042,0.25 1.406,-0.326c0.364,-0.578 -0.05,-1.169 -0.64,-1.506c-0.59,-0.34 -0.64,-0.402 -0.64,-0.402s-0.074,0.016 0.002,0.09c0.077,0.074 0.108,0.16 0.036,0.258c-0.071,0.098 -1.411,1.949 -1.507,2.064c-0.095,0.115 -0.253,0.008 -0.251,0.098m3.598,-1.144s0.169,0.15 0,0.413s-1.296,1.981 -1.296,1.981s-0.106,0.139 -0.318,0.07c-0.031,-0.01 -0.087,0.02 -0.015,0.062c0.165,0.097 0.479,0.3 0.607,0.384c0.094,0.062 0.036,-0.061 0.036,-0.061s-0.103,-0.117 0.009,-0.286c0.113,-0.169 1.23,-1.952 1.352,-2.103c0.123,-0.151 0.206,-0.109 0.282,-0.074c0.076,0.036 0.089,-0.017 0.036,-0.051a65.564,65.564 0 0 0 -0.685,-0.402c-0.043,-0.024 -0.027,0.038 -0.027,0.038m0.932,0.581s1.463,0.771 1.598,0.811c0,0 -0.223,0.478 -0.262,0.533c-0.04,0.056 -0.064,-0.15 -0.024,-0.381c-0.382,-0.247 -0.954,-0.51 -0.954,-0.51l-1.185,2.218s0.82,0.481 0.913,0.518c0.184,0.073 0.376,-0.255 0.431,-0.239c0.056,0.017 -0.246,0.486 -0.286,0.549c-0.04,0.064 -1.383,-0.685 -1.773,-0.875c-0.096,-0.047 -0.048,-0.103 0.135,-0.07c0.183,0.031 0.183,0.039 0.326,-0.191s1.066,-1.939 1.121,-2.035c0.056,-0.098 -0.191,-0.391 -0.04,-0.328" clip-path="url(#b)"/>
  <path id="svg_13" d="m10.18404,43.6193s0.469,0.247 0.597,0.318c0.127,0.071 0.254,0.023 0.325,-0.096c0.072,-0.118 0.095,-0.048 0.008,0.12c-0.087,0.166 -0.23,0.412 -0.294,0.516c-0.063,0.104 -0.135,0.08 -0.063,-0.08c0.071,-0.158 -0.064,-0.23 -0.295,-0.35s-0.429,-0.246 -0.429,-0.246l0.151,-0.182zm12.313,1.632s1.651,-0.102 1.787,-0.137c0,0 0.057,0.522 0.052,0.59s-0.132,-0.096 -0.218,-0.313c-0.404,0.01 -1.079,0.061 -1.079,0.061l-0.009,2.658s1.03,-0.047 1.131,-0.059c0.195,-0.021 0.377,-0.601 0.434,-0.613c0.057,-0.011 -0.114,0.88 -0.114,0.88s-1.684,0.07 -2.106,0.083c-0.107,0.002 -0.09,-0.069 0.086,-0.127c0.177,-0.057 0.188,-0.104 0.207,-0.375c0.019,-0.27 0.035,-2.28 0.033,-2.391c-0.002,-0.109 -0.366,-0.233 -0.204,-0.257" clip-path="url(#b)"/>
  <path id="svg_14" d="m22.96904,46.5283s0.529,-0.027 0.675,-0.03s0.231,-0.109 0.232,-0.249c0.001,-0.139 0.058,-0.089 0.068,0.1c0.009,0.188 0.012,0.473 0.01,0.594s-0.076,0.138 -0.095,-0.035c-0.02,-0.174 -0.172,-0.166 -0.432,-0.15c-0.258,0.014 -0.494,0.006 -0.494,0.006l0.036,-0.236zm-12.009,-0.84s0.56,0.236 0.711,0.306c0.116,0.017 0.092,-0.06 -0.031,-0.182c-0.03,-0.03 -0.022,-0.142 0.073,-0.31c0.088,-0.156 0.761,-1.549 0.761,-1.549l0.397,2.533l0.485,0.16s0.878,-2.254 0.959,-2.465c0.083,-0.211 0.203,-0.168 0.301,-0.146c0.099,0.021 0.108,-0.069 0.009,-0.104c-0.099,-0.035 -0.611,-0.185 -0.718,-0.224c-0.108,-0.038 -0.078,0.069 0.013,0.112c0.09,0.043 0.103,0.111 0.064,0.254c-0.039,0.141 -0.731,2 -0.731,2l-0.439,-2.731s-0.37,-0.229 -0.456,-0.28s-0.112,0.043 -0.03,0.115c0.082,0.074 0.077,0.143 0.017,0.28c-0.06,0.138 -1.029,2.028 -1.085,2.12c-0.055,0.091 -0.354,-0.008 -0.3,0.111m3.961,-1.621l-0.161,0.572c0.233,-0.283 0.508,-0.26 0.508,-0.26l0.326,0.088c-0.11,0.38 -0.64,2.219 -0.705,2.414c-0.073,0.217 -0.284,0.099 -0.314,0.178c-0.014,0.037 -0.004,0.051 0.082,0.07c0.105,0.025 0.487,0.166 0.565,0.188c0.078,0.021 0.088,0.033 0.098,0.005c0.041,-0.115 -0.18,-0.116 -0.109,-0.335c0.028,-0.086 0.628,-2.131 0.715,-2.428c0.176,0.051 0.347,0.103 0.454,0.145c0.105,0.04 0.235,0.201 0.25,0.467c0.057,-0.225 0.178,-0.572 0.178,-0.572l-1.887,-0.532zm9.911,1.123l0.066,0.59c0.11,-0.35 0.373,-0.43 0.373,-0.43s0.38,-0.04 0.57,-0.064c0.043,0.395 0.244,2.297 0.258,2.502c0.015,0.229 -0.231,0.201 -0.224,0.285c0.004,0.04 0.018,0.043 0.105,0.029c0.115,-0.019 0.545,-0.068 0.626,-0.082c0.08,-0.014 0.093,-0.009 0.09,-0.037c-0.012,-0.123 -0.242,0.011 -0.259,-0.218c-0.006,-0.091 -0.222,-2.211 -0.253,-2.519c0.182,-0.02 0.46,-0.093 0.673,-0.118c0.112,-0.015 0.272,0.065 0.387,0.306a8.497,8.497 0 0 1 -0.052,-0.598l-2.36,0.354zm-8.302,2.428l0.742,0.15s0.058,-0.068 -0.076,-0.119c-0.02,-0.008 -0.081,-0.088 -0.05,-0.225c0,0 0.417,-2.199 0.448,-2.354c0.032,-0.155 0.106,-0.144 0.187,-0.137c0.081,0.006 0.156,-0.101 -0.005,-0.131c-0.163,-0.032 -0.475,-0.081 -0.63,-0.112c-0.111,-0.022 -0.131,0.076 -0.075,0.1c0.075,0.031 0.193,0.125 0.175,0.23c-0.02,0.11 -0.418,2.124 -0.461,2.329c-0.031,0.145 -0.1,0.207 -0.212,0.181c-0.081,-0.018 -0.108,0.072 -0.043,0.088m4.871,-0.857a0.233,0.233 0 1 1 -0.466,0a0.233,0.233 0 0 1 0.466,0m6.993,-0.57a0.233,0.233 0 1 1 -0.465,0a0.233,0.233 0 0 1 0.465,0m0.1,-1.661l0.915,-0.203s0.104,0.033 -0.059,0.107c-0.106,0.048 -0.077,0.074 -0.04,0.126c0.04,0.058 1.393,2.169 1.393,2.169l0.189,-2.698s-0.059,-0.062 -0.204,-0.001c-0.04,0.02 -0.098,-0.021 -0.036,-0.064c0.063,-0.046 0.496,-0.234 0.547,-0.257c0.051,-0.022 0.149,0.014 0.032,0.09c-0.094,0.061 -0.086,0.101 -0.093,0.147a767.9,767.9 0 0 0 -0.252,3.016l-0.422,0.166l-1.625,-2.505s-0.128,-0.022 -0.252,-0.003s-0.137,-0.073 -0.093,-0.09m3.136,-0.823s0.977,2.269 1.009,2.358c0.034,0.091 0.039,0.187 -0.056,0.258c-0.096,0.072 -0.058,0.129 0.008,0.096c0.068,-0.033 0.556,-0.285 0.68,-0.352c0.077,-0.042 0.037,-0.111 -0.077,-0.064c-0.115,0.049 -0.177,-0.071 -0.229,-0.2c-0.041,-0.099 -0.941,-2.206 -0.941,-2.206c-0.024,-0.061 0.018,-0.131 0.109,-0.2c0.067,-0.05 0.065,-0.142 -0.026,-0.094c-0.092,0.047 -0.676,0.321 -0.732,0.354c-0.056,0.032 -0.032,0.079 0.074,0.05s0.164,-0.023 0.181,0m2.804,0.032a8.379,8.379 0 0 1 -0.6,0.57l-0.675,-1.3c0.147,-0.073 0.284,-0.146 0.366,-0.193c0.276,-0.159 0.434,-0.111 0.702,-0.021c0.269,0.091 0.407,0.717 0.207,0.944m1.997,0.695c-0.213,0.055 -0.386,-0.063 -0.751,-0.352s-0.771,-0.537 -0.957,-0.447c0.055,-0.117 0.213,-0.51 0.007,-0.875s-0.764,-0.42 -1.019,-0.289a52.11,52.11 0 0 0 -1.212,0.689c-0.066,0.125 0.085,0.097 0.294,0.015l1.318,2.517c-0.132,0.098 -0.145,0.195 -0.145,0.195l0.723,-0.358s-0.001,-0.058 -0.217,0.009l-0.55,-1.059c0.066,-0.083 0.179,-0.214 0.326,-0.348c0.42,-0.338 0.95,0.198 1.336,0.468c0.386,0.269 0.44,0.221 0.599,0.089c0.159,-0.13 0.461,-0.309 0.248,-0.254m1.003,-0.753l-1.374,-2.213l0.402,-0.271c0.291,-0.194 0.592,0.105 0.592,0.105l-0.363,-0.536l-1.846,1.26l0.34,0.486s-0.147,-0.342 0.073,-0.494l0.434,-0.299l1.403,2.189c-0.26,0.199 -0.098,0.212 -0.098,0.212l0.64,-0.442c0,0.001 0.031,-0.124 -0.203,0.003m-0.592,-3.033l0.699,-0.541s-0.118,0.245 0.069,0.491c0.187,0.247 1.043,1.379 1.299,1.566c0.256,0.187 1.004,-0.079 0.896,-1.094c0.236,0.168 0.03,1.182 -0.531,1.447c-0.523,0.248 -0.737,-0.103 -0.906,-0.305c-0.66,-0.787 -0.904,-1.104 -1.122,-1.368c-0.188,-0.225 -0.404,-0.196 -0.404,-0.196" clip-path="url(#b)"/>
  <path id="svg_15" d="m38.18104,39.4773l0.62,-0.531s-0.138,0.166 0.138,0.512c0.276,0.344 1.073,1.407 1.289,1.613c0.217,0.207 0.483,0.09 0.502,-0.029c0.02,-0.117 0.059,-0.039 0.01,0.139c-0.049,0.178 -0.212,0.539 -0.63,0.266c-0.285,-0.188 -0.325,-0.256 -0.413,-0.354a104.426,104.426 0 0 1 -1.201,-1.526c-0.128,-0.169 -0.315,-0.09 -0.315,-0.09m2.421,-1.388l-0.216,-0.865s-0.072,0.049 -0.072,0.145s0,0.229 -0.108,0.24s-0.433,-0.035 -0.756,0.6c-0.109,0.213 -0.072,1.08 0.444,0.973c0.516,-0.108 1.536,-0.527 1.884,0.119c0.348,0.648 -0.444,1.105 -1.044,0.793c-0.012,0 0.228,0.709 0.288,0.889c0.048,-0.049 0.047,-0.209 0.12,-0.276c0.144,-0.133 0.792,-0.192 0.864,-1.032c0.072,-0.84 -0.48,-1.186 -0.912,-1.213c-0.576,-0.035 -1.416,0.529 -1.489,0.133c-0.064,-0.359 0.625,-0.723 0.997,-0.506" clip-path="url(#b)"/>
  <path id="svg_16" d="m12.15904,10.0443c0.194,0.311 0.474,0.687 1.085,1.505c0.059,0.05 0.061,0.135 0.074,0.184c-0.592,0.11 -1.026,-0.017 -1.494,-0.194c-0.177,0.232 -0.445,0.358 -0.77,0.441l0,-0.992c0.001,-0.018 -0.024,-0.022 -0.038,0c-0.241,0.144 -0.534,0.353 -0.937,0.237c0.166,-0.334 0.211,-0.765 0.13,-0.75l-0.036,0c-0.365,0.081 -0.621,0.237 -1.002,0.178c-0.101,-0.019 -0.05,-0.07 -0.026,-0.105l0.257,-0.66c-0.376,0.061 -0.706,0.121 -1.07,-0.037c0.087,-0.086 0.214,-0.171 0.3,-0.256c0.071,-0.094 0.122,-0.197 0.183,-0.295l-0.073,-0.072c-0.316,0.09 -0.657,-0.078 -0.928,-0.179c0.09,-0.112 0.152,-0.194 0.304,-0.3c0.138,-0.058 0.263,-0.152 0.22,-0.219c-0.036,-0.025 -0.032,-0.086 -0.099,-0.099c-0.369,-0.045 -0.754,-0.068 -1.002,-0.293c0.025,-0.037 0.086,-0.084 0.11,-0.121c0.313,-0.262 0.371,-0.236 0.844,-0.221c0,-0.012 0.064,0.002 0.006,-0.089c-0.212,-0.335 -0.102,-1.042 -0.137,-0.896c-0.088,0.466 -0.805,0.527 -0.786,0.362c0.012,-0.811 -0.299,-0.545 -0.359,-0.74c-0.043,-0.143 0.072,-0.291 0.286,-0.418c0.495,-0.297 0.785,0.277 0.697,-0.017c-0.05,-0.061 -0.056,-0.143 -0.147,-0.183c-0.387,-0.076 -0.717,-0.251 -0.807,-0.441c-0.073,-0.18 -0.05,-0.445 0.089,-0.66a0.357,0.357 0 0 1 0.168,-0.109c0.411,-0.061 0.798,0.726 0.843,0.55c-0.21,-0.624 -0.297,-1.326 0.271,-1.558c0.117,-0.032 0.344,-0.041 0.5,0.127c0.261,0.318 -0.034,1.17 0,1.797c0.038,0.697 0.422,1.539 0.734,2.054c0.259,0.387 0.563,0.766 0.954,1.139c0.349,0.271 0.886,0.618 1.25,0.693c0.046,0.112 0.136,0.309 0.181,0.444c0.065,0.068 0.115,0.115 0.225,0.193" fill="#FFD400" clip-path="url(#b)"/>
  <path id="svg_17" d="m12.51904,6.4273c0.104,0.05 0.21,0.1 0.296,0.158c-0.331,0.717 -0.575,1.475 0.33,2.129c0.176,0.127 0.395,0.217 0.575,0.244c0.111,0.213 0.68,0.346 0.82,0.159l0.586,-0.11c0.63,-0.273 0.911,-0.851 0.918,-1.541c0.413,-0.016 0.52,-0.2 0.733,-0.403l0.074,0.11c0.172,0.311 0.002,0.809 -0.147,1.027l-0.33,-0.331l-0.038,0c0.097,0.345 0.32,0.672 0.183,1.065a0.988,0.988 0 0 0 -0.073,-0.036c-0.06,-0.188 -0.133,-0.278 -0.33,-0.331l0,0.037c0.228,0.383 0.477,1.098 0,1.468l-0.037,0c-0.005,-0.374 -0.15,-0.643 -0.366,-0.808c-0.025,0.024 -0.049,0.05 -0.074,0.073c0.102,0.235 0.383,0.84 0.208,1.141c-0.294,-0.22 -0.632,-0.549 -0.925,-0.77c0,0.037 0.089,0.248 0.129,0.293c0.196,0.295 0.381,0.686 -0.056,1.33c-0.242,-0.72 -1.199,-1.248 -1.382,-1.664c-0.039,0.718 0.884,1.224 0.155,2.239c-0.024,-0.012 -0.049,-0.024 -0.073,-0.038c-0.189,-0.63 -0.719,-0.955 -1.028,-1.466c-0.218,-0.362 -0.32,-0.621 -0.193,-1.204c-0.067,-0.005 -0.113,0.053 -0.137,0.066c-0.073,0.122 -0.167,0.319 -0.24,0.44c-0.107,-0.066 -0.1,-0.14 -0.127,-0.219c-0.106,-0.449 0.195,-0.62 0.304,-1.014a0.937,0.937 0 0 0 0.026,-0.124c-0.012,0 -0.017,-0.114 -0.11,0.107c-0.086,0.168 -0.101,0.233 -0.259,0.321c-0.021,-0.043 -0.03,-0.159 0.003,-0.208c0.083,-0.161 0.14,-0.314 0.15,-0.569c-0.016,-0.037 -0.053,-0.007 -0.064,0.023c-0.02,0.021 -0.035,0.064 -0.055,0.115c-0.036,0.086 -0.069,0.125 -0.105,0.211c-0.049,0.109 -0.099,0.125 -0.113,0.096c-0.187,-0.436 0.306,-0.959 0.443,-1.233c0.034,-0.097 -0.002,-0.076 -0.036,-0.037c-0.172,0.184 -0.334,0.395 -0.505,0.578c-0.028,0.03 -0.08,0.008 -0.075,-0.035c0,-0.109 0,-0.245 0.029,-0.323c0.16,-0.489 0.269,-0.751 0.663,-1.103c0.041,-0.021 -0.004,-0.093 -0.076,-0.072c-0.183,0.063 -0.462,0.217 -0.645,0.279c0,-0.062 0.037,-0.228 0.074,-0.314c0.109,-0.16 0.204,-0.324 0.351,-0.442c0.05,-0.02 0.091,-0.014 0.125,0.01c0.015,0.01 0.157,-0.246 0.154,-0.272c-0.02,-0.134 0.086,-0.185 0.082,-0.33c-0.254,-0.503 0.178,-1.151 -0.031,-1.81c0.341,0.127 0.677,0.465 0.71,0.501c0.01,-0.311 0.149,-0.765 0.275,-0.954a0.88,0.88 0 0 1 0.226,0.287l0.257,0.404c0.06,-0.127 0.093,-0.353 0.153,-0.48c0.099,-0.215 0.243,-0.424 0.342,-0.639c0.098,0.257 0.227,0.623 0.324,0.881c0.141,-0.049 0.04,-0.104 0.11,-0.215c0.062,-0.293 0.16,-0.427 0.233,-0.623c0.132,0.226 0.239,0.686 0.305,1.039l0.037,0l0.074,-0.037c0.098,-0.226 0.189,-0.367 0.287,-0.501c0.349,0.361 0.22,0.974 0.306,0.991c0.135,-0.006 0.299,-0.312 0.41,-0.41c0.194,0.215 0.084,0.718 0.201,0.832c0.043,0.036 0.092,-0.043 0.117,-0.068c0.247,-0.217 0.462,-0.367 0.788,-0.22c-0.067,0.636 -0.129,1.691 -0.458,1.835c-0.062,0.061 -0.245,-0.097 -0.33,-0.109c0.364,0.648 0.109,1.411 -0.624,1.429l-0.33,-0.183c-0.062,-0.024 -0.098,-0.012 -0.074,0.074c0.476,0.802 -0.276,1.653 -0.991,1.688l-0.073,-0.038l0.037,-0.219c0.617,-0.034 1.069,-0.769 0.807,-1.431l-0.036,0c-0.109,0.303 -0.194,0.45 -0.624,0.44l-0.331,-0.256c0.035,-0.514 0.383,-0.451 0.661,-0.698l0,-0.844c0.451,0.323 1.071,0.096 1.305,-0.245c0.158,-0.438 0.012,-0.385 -0.026,-0.288c-0.2,0.481 -1.041,0.655 -1.205,0.276l0,-0.184a0.966,0.966 0 0 1 0.036,-0.072c0.208,-0.08 0.581,-0.142 0.807,-0.111c0.23,0.032 0.367,-0.004 0.44,0.183c0.085,-0.197 0.379,-0.189 0.383,-0.519c-0.153,0.31 -0.581,0.215 -0.949,0.222c-0.331,0.008 -0.704,0.047 -0.738,-0.023c-0.024,-0.11 -0.044,-0.291 -0.069,-0.4c-0.026,0.019 -0.078,0.097 -0.078,0.138c-0.029,0.543 -0.038,1.043 -0.087,1.569c-0.258,-0.118 -0.549,-0.213 -0.92,-0.143l0,-0.035l0.514,-1.652c-0.006,-0.073 -0.043,-0.086 -0.074,-0.038c-0.062,0.169 -0.087,0.288 -0.22,0.33l-0.037,0c-0.233,-0.011 -0.376,-0.286 -0.574,-0.384c-0.202,-0.049 -0.343,-0.055 -0.551,-0.079c-0.098,-0.062 -0.183,-0.294 -0.269,-0.428c-0.046,-0.073 -0.091,-0.026 -0.03,0.274c0.09,0.231 0.317,0.356 0.317,0.356s0.008,0.334 0.117,0.519c0.188,0.321 0.548,0.332 0.843,0.551c-0.071,0.211 -0.249,0.516 -0.183,0.733c0.161,0.34 0.467,0.509 0.404,0.992c-0.143,0.068 -0.212,0.101 -0.44,0.109c-0.273,-0.098 -0.473,-0.186 -0.587,-0.44c-0.136,-0.221 -0.037,-0.519 0.073,-0.697c-0.024,-0.025 -0.049,-0.048 -0.073,-0.074c-0.147,0.026 -0.294,0.049 -0.441,0.074c-0.26,-0.054 -0.471,-0.32 -0.545,-0.689c-0.004,-0.02 -0.119,-0.076 -0.119,-0.076s-0.094,0.224 0.038,0.412c0.132,0.186 0.316,0.427 0.368,0.451" fill="#FFD400" clip-path="url(#b)"/>
  <path id="svg_18" d="m9.41304,3.9333c0.261,0.013 0.273,0.094 0.43,0.194c0.295,0.367 -0.329,0.726 -0.58,1.842c-0.024,0.081 -0.048,0.155 -0.06,0.155a0.343,0.343 0 0 1 -0.058,-0.126c-0.17,-0.674 -0.02,-1.247 0,-1.944c0.002,-0.103 0.187,-0.121 0.268,-0.121" fill="#FFE380" clip-path="url(#b)"/>
  <path id="svg_19" d="m9.41304,3.9333c0.261,0.013 0.273,0.094 0.43,0.194c0.295,0.367 -0.329,0.726 -0.58,1.842c-0.024,0.081 -0.048,0.155 -0.06,0.155a0.343,0.343 0 0 1 -0.058,-0.126c-0.17,-0.674 -0.02,-1.247 0,-1.944c0.002,-0.103 0.187,-0.121 0.268,-0.121" fill="#FFE380" clip-path="url(#b)"/>
  <path id="svg_20" d="m24.88604,1.9623c0.4,0.251 0.03,1.053 -0.073,1.321c0.462,-0.128 0.793,-0.413 1.394,-0.514c0.851,-0.143 1.633,0.321 2.495,0.111c0.81,-0.198 1.584,-0.982 2.531,-0.514a2.423,2.423 0 0 0 -0.035,0.073c-0.931,0.166 -1.459,1.057 -2.276,1.394c-0.667,0.276 -1.581,0.048 -2.264,0.083c0,0.013 0.062,0.052 0.062,0.065c0.979,0.413 0.877,0.881 1.393,1.269c-0.038,0.025 -0.145,0.064 -0.182,0.088c-0.441,0.224 -1.149,0.028 -1.541,-0.147l-1.358,-0.844c-1.216,-0.692 -4.952,-0.571 -5.429,0.697c-0.322,0.786 0.624,1.195 1.851,1.09c0.955,-0.084 1.981,-0.303 2.368,-0.281l0,-0.038l-0.073,-0.111l-0.22,-0.109l0.036,-0.074c0.441,-0.084 0.641,0.087 1.028,0.183c0.09,-0.262 0.169,-0.504 0.366,-0.66c0.39,0.082 0.946,0.499 1.212,0.294c0.475,0.249 1.662,0.667 2.31,-0.11c-0.222,-0.083 -0.652,-0.44 -0.697,-0.703c0.434,0.09 0.887,0.488 1.394,0.519l0.074,-0.109c0.012,-0.147 -0.038,-0.315 -0.025,-0.461c0.014,-0.082 0.083,-0.116 0.208,-0.016c0.38,0.238 1.009,0.541 1.578,0.44c0.032,-0.31 -0.29,-0.474 -0.264,-0.824c0.241,0.127 1.283,0.658 1.438,0.531c-0.012,-0.184 -0.121,-0.423 -0.133,-0.606c0.049,0.049 0.195,0.152 0.244,0.201l0.587,0.514l0.073,0c0.13,-0.323 0.204,-0.684 0.376,-0.949c0.1,-0.084 0.076,0.093 0.101,0.105c0.181,0.495 0.541,0.914 0.954,1.102c0.257,-0.301 -0.015,-0.744 0.61,-1.261c0,0.024 -0.096,0.318 -0.096,0.343c-0.011,0.687 0.023,1.051 0.44,1.394c0.382,-0.076 0.363,-0.395 0.587,-0.625c0.388,-0.394 1.263,-0.14 1.711,-0.8c-0.372,1.146 -1.085,0.979 -1.376,1.445c-0.258,0.41 -0.022,0.687 -0.151,1.301c-0.065,0.306 -0.271,0.468 -0.404,0.697l0.036,0c0.44,-0.2 0.67,-0.613 1.065,-0.807c0.535,-0.262 1.463,0.127 2.234,-0.214c-0.665,1.19 -1.337,0.768 -2.178,1.011c-0.375,0.11 -0.529,0.332 -0.827,0.486c-0.434,0.227 -1.027,0.306 -1.578,0.405c-1.233,0.22 -3.01,-0.185 -3.88,-0.215c-0.034,0.035 -0.028,0.123 0.028,0.178c0.661,0.806 1.423,1.281 2.715,1.467c1.703,0.246 3.73,-1.704 4.916,-0.11l-0.073,0.074l-0.257,-0.074l-0.073,0.074c0.277,0.521 0.903,0.473 0.954,1.284c-0.012,0.025 -0.025,0.048 -0.036,0.074l-0.441,-0.147l-0.036,0.036c0.154,0.292 0.464,0.622 0.477,0.917c-0.136,-0.023 -0.27,-0.048 -0.404,-0.072l-0.037,0.403c0.061,0.04 0.138,-0.008 0.199,0.031c0.05,0.034 0.189,0.043 0.286,0.29c-0.426,0.155 -0.41,0.366 -0.521,0.706c-0.308,-0.022 -0.332,-0.124 -0.477,-0.293a2.551,2.551 0 0 0 -0.074,0.037c-0.089,0.449 -0.204,0.768 -0.477,1.027c-0.29,-0.078 -0.371,-0.252 -0.754,-0.082c-0.071,-0.043 -0.054,-0.138 -0.054,-0.176c0.044,-0.261 0.144,-0.371 0.243,-0.565l0.051,-0.095c0.042,-0.053 0.053,-0.127 -0.036,-0.073c-0.086,0.073 -0.171,0.148 -0.258,0.22c-0.119,0.381 -0.203,0.709 -0.697,0.734c-0.308,-0.168 -0.328,-0.49 -0.587,-0.697l0.037,-0.073l1.395,-0.551c0.282,-0.909 0.018,-1.45 -0.606,-1.682c-1.354,-0.503 -5.061,0.541 -6.769,0.105c-0.703,-0.18 -1.639,-0.774 -1.909,-1.395a1.083,1.083 0 0 1 0.007,-0.783c0.035,-0.081 -0.081,-0.069 -0.116,-0.061l-0.147,0.331l-1.064,-0.221c-1.668,-0.055 -2.811,0.57 -3.596,0.918c-1.575,0.697 -2.576,1.907 -5.731,1.473c-0.119,-0.055 -0.151,-0.018 -0.176,-0.006c0.034,0.613 0.415,0.698 0.438,1.363c-0.228,0.39 -0.567,0.551 -0.915,0.728c-0.089,0.049 -0.131,-0.115 -0.177,-0.257c-0.065,-0.041 -0.056,0.099 -0.08,0.111c0.052,0.51 -0.273,0.711 -0.624,0.918c-0.084,0.057 -0.1,0.044 -0.134,-0.192c-0.122,-0.197 -0.183,-0.237 -0.306,-0.433c-0.053,-0.084 -0.102,-0.086 -0.073,0.037c-0.034,0.391 -0.231,0.56 -0.514,0.697c-0.118,0.082 -0.175,0.088 -0.147,-0.037c-0.016,-0.322 -0.173,-0.551 -0.44,-0.623c-0.047,0.469 -0.349,0.61 -0.697,0.771c-0.122,0.063 -0.133,0.032 -0.11,-0.111c0.058,-0.241 0.024,-0.613 -0.215,-0.687c-0.087,0.432 -0.564,0.752 -1.069,0.761c0.067,-0.31 0.212,-0.468 0.183,-0.808c-0.024,-0.024 -0.049,-0.126 -0.073,-0.151c-0.172,0.408 -0.452,0.596 -0.881,0.776c-0.097,0.023 -0.237,0.08 -0.273,0.044c0.066,-0.027 0.123,-0.355 0.253,-0.487c0.135,-0.17 0.253,-0.231 0.387,-0.402a4.993,4.993 0 0 1 -0.073,-0.036l-0.845,-0.037c0.043,0.35 0.005,0.561 -0.219,0.734c-0.164,-0.067 -0.292,-0.314 -0.788,-0.275c-0.146,-0.145 -0.013,-0.133 -0.031,-0.365c0.098,-0.172 0.17,-0.18 0.268,-0.351l-0.037,-0.036c-0.281,0.179 -1.398,1.172 -1.834,0.439c-0.102,-0.113 -0.099,-0.166 -0.073,-0.33c0.277,-0.266 0.747,-0.232 1.063,-0.476l-0.036,-0.074c-0.41,0.013 -0.898,0.27 -1.101,0.147c-0.181,-0.096 -0.229,-0.27 -0.367,-0.403c-0.006,-0.212 0.015,-0.358 0.074,-0.477c0.036,-0.014 0.073,-0.025 0.11,-0.037c1.424,0.459 3.161,1.109 5.063,0.623l1.284,-0.514l0.037,0.037l0.074,0.477l0.11,-0.037c0.511,-0.668 0.68,-0.756 0.465,-1.797c0.037,0.037 0.162,0.143 0.199,0.18c0.317,0.328 0.543,0.46 0.306,1.075c0.666,-0.125 0.9,-0.819 0.799,-1.446c0.049,0.037 0.171,0.093 0.212,0.191c0.061,0.109 0.09,0.252 0.151,0.363c0.036,-0.025 0.138,-0.195 0.162,-0.244c0.117,-0.467 0.34,-0.246 0.567,-0.889c0.049,-0.139 0.007,-0.396 0.04,-0.526c0.022,-0.089 0.087,-0.117 0.107,-0.2c0.046,-0.196 0.074,-0.447 0.059,-0.612c0.07,-0.091 0.133,-0.152 0.192,-0.305c0.076,-0.195 0.137,-0.509 0.141,-0.767c0.963,0.096 2.16,0.262 3.241,0.244c0.741,-0.021 1.492,-0.123 2.237,-0.183c4.996,-0.916 6.301,-0.758 9.338,-0.147c1.232,0.248 3.499,0.209 3.321,-1.064c-0.171,-1.217 -2.901,-1.188 -4.238,-0.881c-2.416,0.555 -4.904,0.885 -7.43,1.359c-1.145,0.213 -2.797,0.483 -3.889,0.036c-1.114,-0.456 -1.85,-1.659 -0.77,-2.678c1.298,-1.227 5.052,-0.713 5.98,-2.129" fill="#835221" clip-path="url(#b)"/>
  <path id="svg_21" d="m26.61004,9.2703a0.59,0.59 0 0 1 0.339,0.107c-0.344,1.232 0.897,1.774 1.386,2.344c0.043,0.08 0.085,0.567 -0.271,0.621c0.025,0.549 -0.265,0.942 -0.371,1.032c-0.345,-0.227 -0.537,-0.463 -0.789,-0.662c-0.052,-0.031 -0.049,0.049 -0.074,0.074c0.09,0.38 -0.322,0.902 -0.669,0.972c-0.091,-0.332 -0.121,-0.666 -0.284,-0.908c-0.153,-0.089 -0.086,0.033 -0.11,0.045c-0.042,0.568 -0.291,0.876 -0.643,1.129c-0.024,-0.012 -0.168,0.058 -0.128,-0.027c-0.104,-0.46 -0.399,-0.729 -0.734,-0.955l-0.073,0.037c0.02,0.65 -0.257,0.921 -0.661,1.138l-0.109,-0.074c-0.36,-0.338 -0.172,-0.396 -0.258,-0.697c-0.158,-0.012 -0.265,0.038 -0.477,-0.036c-0.085,0.013 -0.024,0.048 -0.036,0.073c0.108,0.238 0.112,0.457 0.036,0.734c-0.049,0.035 -0.097,0.073 -0.146,0.11c-0.227,-0.221 -0.517,-0.172 -0.755,-0.131c-0.249,-0.376 0.006,-0.656 -0.089,-0.786c-0.303,0.243 -0.772,0.938 -1.421,0.671c-0.085,-0.062 -0.129,0.023 -0.267,-0.194c0.009,-0.305 0.093,-0.314 0.22,-0.477l0.807,-0.368l0,-0.036a1.987,1.987 0 0 0 -0.923,0.28c-0.433,-0.02 -1.059,-0.367 -0.581,-0.757c0.724,-0.407 3.847,0.569 5.515,-0.714c0.083,-0.066 0.062,-0.143 0.062,-0.166c-0.953,-0.619 -1.238,-1.461 -0.367,-2.386c0.037,0.001 0.848,-0.167 1.871,0.007" fill="#835221" clip-path="url(#b)"/>
  <path id="svg_22" d="m12.51904,6.4273c0.104,0.05 0.21,0.1 0.296,0.158c-0.331,0.717 -0.575,1.475 0.33,2.129c0.176,0.127 0.395,0.217 0.575,0.244c0.111,0.213 0.68,0.346 0.82,0.159l0.586,-0.11c0.63,-0.273 0.911,-0.851 0.918,-1.541c0.413,-0.016 0.52,-0.2 0.733,-0.403l0.074,0.11c0.172,0.311 0.002,0.809 -0.147,1.027l-0.33,-0.331l-0.038,0c0.097,0.345 0.32,0.672 0.183,1.065a0.988,0.988 0 0 0 -0.073,-0.036c-0.06,-0.188 -0.133,-0.278 -0.33,-0.331l0,0.037c0.228,0.383 0.477,1.098 0,1.468l-0.037,0c-0.005,-0.374 -0.15,-0.643 -0.366,-0.808c-0.025,0.024 -0.049,0.05 -0.074,0.073c0.102,0.235 0.383,0.84 0.208,1.141c-0.294,-0.22 -0.632,-0.549 -0.925,-0.77c0,0.037 0.089,0.248 0.129,0.293c0.196,0.295 0.381,0.686 -0.056,1.33c-0.242,-0.72 -1.199,-1.248 -1.382,-1.664c-0.039,0.718 0.884,1.224 0.155,2.239c-0.024,-0.012 -0.049,-0.024 -0.073,-0.038c-0.189,-0.63 -0.719,-0.955 -1.028,-1.466c-0.218,-0.362 -0.32,-0.621 -0.193,-1.204c-0.067,-0.005 -0.113,0.053 -0.137,0.066c-0.073,0.122 -0.167,0.319 -0.24,0.44c-0.107,-0.066 -0.1,-0.14 -0.127,-0.219c-0.106,-0.449 0.195,-0.62 0.304,-1.014a0.937,0.937 0 0 0 0.026,-0.124c-0.012,0 -0.017,-0.114 -0.11,0.107c-0.086,0.168 -0.101,0.233 -0.259,0.321c-0.021,-0.043 -0.03,-0.159 0.003,-0.208c0.083,-0.161 0.14,-0.314 0.15,-0.569c-0.016,-0.037 -0.053,-0.007 -0.064,0.023c-0.02,0.021 -0.035,0.064 -0.055,0.115c-0.036,0.086 -0.069,0.125 -0.105,0.211c-0.049,0.109 -0.099,0.125 -0.113,0.096c-0.187,-0.436 0.306,-0.959 0.443,-1.233c0.034,-0.097 -0.002,-0.076 -0.036,-0.037c-0.172,0.184 -0.334,0.395 -0.505,0.578c-0.028,0.03 -0.08,0.008 -0.075,-0.035c0,-0.109 0,-0.245 0.029,-0.323c0.16,-0.489 0.269,-0.751 0.663,-1.103c0.041,-0.021 -0.004,-0.093 -0.076,-0.072c-0.183,0.063 -0.462,0.217 -0.645,0.279c0,-0.062 0.037,-0.228 0.074,-0.314c0.109,-0.16 0.204,-0.324 0.351,-0.442c0.05,-0.02 0.091,-0.014 0.125,0.01c0.015,0.01 0.157,-0.246 0.154,-0.272c-0.02,-0.134 0.086,-0.185 0.082,-0.33c-0.254,-0.503 0.178,-1.151 -0.031,-1.81c0.341,0.127 0.677,0.465 0.71,0.501c0.01,-0.311 0.149,-0.765 0.275,-0.954a0.88,0.88 0 0 1 0.226,0.287l0.257,0.404c0.06,-0.127 0.093,-0.353 0.153,-0.48c0.099,-0.215 0.243,-0.424 0.342,-0.639c0.098,0.257 0.227,0.623 0.324,0.881c0.141,-0.049 0.04,-0.104 0.11,-0.215c0.062,-0.293 0.16,-0.427 0.233,-0.623c0.132,0.226 0.239,0.686 0.305,1.039l0.037,0l0.074,-0.037c0.098,-0.226 0.189,-0.367 0.287,-0.501c0.349,0.361 0.22,0.974 0.306,0.991c0.135,-0.006 0.299,-0.312 0.41,-0.41c0.194,0.215 0.084,0.718 0.201,0.832c0.043,0.036 0.092,-0.043 0.117,-0.068c0.247,-0.217 0.462,-0.367 0.788,-0.22c-0.067,0.636 -0.129,1.691 -0.458,1.835c-0.062,0.061 -0.245,-0.097 -0.33,-0.109c0.364,0.648 0.109,1.411 -0.624,1.429l-0.33,-0.183c-0.062,-0.024 -0.098,-0.012 -0.074,0.074c0.476,0.802 -0.276,1.653 -0.991,1.688l-0.073,-0.038l0.037,-0.219c0.617,-0.034 1.069,-0.769 0.807,-1.431l-0.036,0c-0.109,0.303 -0.194,0.45 -0.624,0.44c-0.138,-0.022 -0.257,-0.13 -0.331,-0.256c0.035,-0.514 0.383,-0.451 0.661,-0.698l0,-0.844c0.451,0.323 1.071,0.096 1.305,-0.245c0.158,-0.438 0.012,-0.385 -0.026,-0.288c-0.2,0.481 -1.041,0.655 -1.205,0.276l0,-0.184a0.966,0.966 0 0 1 0.036,-0.072c0.208,-0.08 0.581,-0.142 0.807,-0.111c0.23,0.032 0.367,-0.004 0.44,0.183c0.085,-0.197 0.379,-0.189 0.383,-0.519c-0.153,0.31 -0.581,0.215 -0.949,0.222c-0.331,0.008 -0.704,0.047 -0.738,-0.023c-0.024,-0.11 -0.044,-0.291 -0.069,-0.4c-0.026,0.019 -0.078,0.097 -0.078,0.138c-0.029,0.543 -0.038,1.043 -0.087,1.569c-0.258,-0.118 -0.549,-0.213 -0.92,-0.143l0,-0.035l0.514,-1.652c-0.006,-0.073 -0.043,-0.086 -0.074,-0.038c-0.062,0.169 -0.087,0.288 -0.22,0.33l-0.037,0c-0.233,-0.011 -0.376,-0.286 -0.574,-0.384c-0.202,-0.049 -0.343,-0.055 -0.551,-0.079c-0.098,-0.062 -0.183,-0.294 -0.269,-0.428c-0.046,-0.073 -0.091,-0.026 -0.03,0.274c0.09,0.231 0.317,0.356 0.317,0.356s0.008,0.334 0.117,0.519c0.188,0.321 0.548,0.332 0.843,0.551c-0.071,0.211 -0.249,0.516 -0.183,0.733c0.161,0.34 0.467,0.509 0.404,0.992c-0.143,0.068 -0.212,0.101 -0.44,0.109c-0.273,-0.098 -0.473,-0.186 -0.587,-0.44c-0.136,-0.221 -0.037,-0.519 0.073,-0.697c-0.024,-0.025 -0.049,-0.048 -0.073,-0.074c-0.147,0.026 -0.294,0.049 -0.441,0.074c-0.26,-0.054 -0.471,-0.32 -0.545,-0.689c-0.004,-0.02 -0.119,-0.076 -0.119,-0.076s-0.094,0.224 0.038,0.412c0.132,0.186 0.316,0.427 0.368,0.451" fill="#FFD400" clip-path="url(#b)"/>
  <path id="svg_23" d="m12.15904,10.0443c0.194,0.311 0.474,0.687 1.085,1.505c0.059,0.05 0.061,0.135 0.074,0.184c-0.592,0.11 -1.026,-0.017 -1.494,-0.194c-0.177,0.232 -0.445,0.358 -0.77,0.441l0,-0.992c0.001,-0.018 -0.024,-0.022 -0.038,0c-0.241,0.144 -0.534,0.353 -0.937,0.237c0.166,-0.334 0.211,-0.765 0.13,-0.75l-0.036,0c-0.365,0.081 -0.621,0.237 -1.002,0.178c-0.101,-0.019 -0.05,-0.07 -0.026,-0.105l0.257,-0.66c-0.376,0.061 -0.706,0.121 -1.07,-0.037c0.087,-0.086 0.214,-0.171 0.3,-0.256c0.071,-0.094 0.122,-0.197 0.183,-0.295l-0.073,-0.072c-0.316,0.09 -0.657,-0.078 -0.928,-0.179c0.09,-0.112 0.152,-0.194 0.304,-0.3c0.138,-0.058 0.263,-0.152 0.22,-0.219c-0.036,-0.025 -0.032,-0.086 -0.099,-0.099c-0.369,-0.045 -0.754,-0.068 -1.002,-0.293c0.025,-0.037 0.086,-0.084 0.11,-0.121c0.313,-0.262 0.371,-0.236 0.844,-0.221c0,-0.012 0.064,0.002 0.006,-0.089c-0.212,-0.335 -0.102,-1.042 -0.137,-0.896c-0.088,0.466 -0.805,0.527 -0.786,0.362c0.012,-0.811 -0.299,-0.545 -0.359,-0.74c-0.043,-0.143 0.072,-0.291 0.286,-0.418c0.495,-0.297 0.785,0.277 0.697,-0.017c-0.05,-0.061 -0.056,-0.143 -0.147,-0.183c-0.387,-0.076 -0.717,-0.251 -0.807,-0.441c-0.073,-0.18 -0.05,-0.445 0.089,-0.66a0.357,0.357 0 0 1 0.168,-0.109c0.411,-0.061 0.798,0.726 0.843,0.55c-0.21,-0.624 -0.297,-1.326 0.271,-1.558c0.117,-0.032 0.344,-0.041 0.5,0.127c0.261,0.318 -0.034,1.17 0,1.797c0.038,0.697 0.422,1.539 0.734,2.054c0.259,0.387 0.563,0.766 0.954,1.139c0.349,0.271 0.886,0.618 1.25,0.693c0.046,0.112 0.136,0.309 0.181,0.444c0.065,0.068 0.115,0.115 0.225,0.193" fill="#FFD400" clip-path="url(#b)"/>
  <path id="svg_24" d="m24.88604,1.9623c0.4,0.251 0.03,1.053 -0.073,1.321c0.462,-0.128 0.793,-0.413 1.394,-0.514c0.851,-0.143 1.633,0.321 2.495,0.111c0.81,-0.198 1.584,-0.982 2.531,-0.514a2.423,2.423 0 0 0 -0.035,0.073c-0.931,0.166 -1.459,1.057 -2.276,1.394c-0.667,0.276 -1.581,0.048 -2.264,0.083c0,0.013 0.062,0.052 0.062,0.065c0.979,0.413 0.877,0.881 1.393,1.269c-0.038,0.025 -0.145,0.064 -0.182,0.088c-0.441,0.224 -1.149,0.028 -1.541,-0.147l-1.358,-0.844c-1.216,-0.692 -4.952,-0.571 -5.429,0.697c-0.322,0.786 0.624,1.195 1.851,1.09c0.955,-0.084 1.981,-0.303 2.368,-0.281l0,-0.038l-0.073,-0.111l-0.22,-0.109l0.036,-0.074c0.441,-0.084 0.641,0.087 1.028,0.183c0.09,-0.262 0.169,-0.504 0.366,-0.66c0.39,0.082 0.946,0.499 1.212,0.294c0.475,0.249 1.662,0.667 2.31,-0.11c-0.222,-0.083 -0.652,-0.44 -0.697,-0.703c0.434,0.09 0.887,0.488 1.394,0.519l0.074,-0.109c0.012,-0.147 -0.038,-0.315 -0.025,-0.461c0.014,-0.082 0.083,-0.116 0.208,-0.016c0.38,0.238 1.009,0.541 1.578,0.44c0.032,-0.31 -0.29,-0.474 -0.264,-0.824c0.241,0.127 1.283,0.658 1.438,0.531c-0.012,-0.184 -0.121,-0.423 -0.133,-0.606c0.049,0.049 0.195,0.152 0.244,0.201l0.587,0.514l0.073,0c0.13,-0.323 0.204,-0.684 0.376,-0.949c0.1,-0.084 0.076,0.093 0.101,0.105c0.181,0.495 0.541,0.914 0.954,1.102c0.257,-0.301 -0.015,-0.744 0.61,-1.261c0,0.024 -0.096,0.318 -0.096,0.343c-0.011,0.687 0.023,1.051 0.44,1.394c0.382,-0.076 0.363,-0.395 0.587,-0.625c0.388,-0.394 1.263,-0.14 1.711,-0.8c-0.372,1.146 -1.085,0.979 -1.376,1.445c-0.258,0.41 -0.022,0.687 -0.151,1.301c-0.065,0.306 -0.271,0.468 -0.404,0.697l0.036,0c0.44,-0.2 0.67,-0.613 1.065,-0.807c0.535,-0.262 1.463,0.127 2.234,-0.214c-0.665,1.19 -1.337,0.768 -2.178,1.011c-0.375,0.11 -0.529,0.332 -0.827,0.486c-0.434,0.227 -1.027,0.306 -1.578,0.405c-1.233,0.22 -3.01,-0.185 -3.88,-0.215c-0.034,0.035 -0.028,0.123 0.028,0.178c0.661,0.806 1.423,1.281 2.715,1.467c1.703,0.246 3.73,-1.704 4.916,-0.11l-0.073,0.074l-0.257,-0.074l-0.073,0.074c0.277,0.521 0.903,0.473 0.954,1.284c-0.012,0.025 -0.025,0.048 -0.036,0.074l-0.441,-0.147l-0.036,0.036c0.154,0.292 0.464,0.622 0.477,0.917c-0.136,-0.023 -0.27,-0.048 -0.404,-0.072l-0.037,0.403c0.061,0.04 0.138,-0.008 0.199,0.031c0.05,0.034 0.189,0.043 0.286,0.29c-0.426,0.155 -0.41,0.366 -0.521,0.706c-0.308,-0.022 -0.332,-0.124 -0.477,-0.293a2.551,2.551 0 0 0 -0.074,0.037c-0.089,0.449 -0.204,0.768 -0.477,1.027c-0.29,-0.078 -0.371,-0.252 -0.754,-0.082c-0.071,-0.043 -0.054,-0.138 -0.054,-0.176c0.044,-0.261 0.144,-0.371 0.243,-0.565l0.051,-0.095c0.042,-0.053 0.053,-0.127 -0.036,-0.073c-0.086,0.073 -0.171,0.148 -0.258,0.22c-0.119,0.381 -0.203,0.709 -0.697,0.734c-0.308,-0.168 -0.328,-0.49 -0.587,-0.697l0.037,-0.073l1.395,-0.551c0.282,-0.909 0.018,-1.45 -0.606,-1.682c-1.354,-0.503 -5.061,0.541 -6.769,0.105c-0.703,-0.18 -1.639,-0.774 -1.909,-1.395a1.083,1.083 0 0 1 0.007,-0.783c0.035,-0.081 -0.081,-0.069 -0.116,-0.061l-0.147,0.331l-1.064,-0.221c-1.668,-0.055 -2.811,0.57 -3.596,0.918c-1.575,0.697 -2.576,1.907 -5.731,1.473c-0.119,-0.055 -0.151,-0.018 -0.176,-0.006c0.034,0.613 0.415,0.698 0.438,1.363c-0.228,0.39 -0.567,0.551 -0.915,0.728c-0.089,0.049 -0.131,-0.115 -0.177,-0.257c-0.065,-0.041 -0.056,0.099 -0.08,0.111c0.052,0.51 -0.273,0.711 -0.624,0.918c-0.084,0.057 -0.1,0.044 -0.134,-0.192c-0.122,-0.197 -0.183,-0.237 -0.306,-0.433c-0.053,-0.084 -0.102,-0.086 -0.073,0.037c-0.034,0.391 -0.231,0.56 -0.514,0.697c-0.118,0.082 -0.175,0.088 -0.147,-0.037c-0.016,-0.322 -0.173,-0.551 -0.44,-0.623c-0.047,0.469 -0.349,0.61 -0.697,0.771c-0.122,0.063 -0.133,0.032 -0.11,-0.111c0.058,-0.241 0.024,-0.613 -0.215,-0.687c-0.087,0.432 -0.564,0.752 -1.069,0.761c0.067,-0.31 0.212,-0.468 0.183,-0.808c-0.024,-0.024 -0.049,-0.126 -0.073,-0.151c-0.172,0.408 -0.452,0.596 -0.881,0.776c-0.097,0.023 -0.237,0.08 -0.273,0.044c0.066,-0.027 0.123,-0.355 0.253,-0.487c0.135,-0.17 0.253,-0.231 0.387,-0.402a4.993,4.993 0 0 1 -0.073,-0.036l-0.845,-0.037c0.043,0.35 0.005,0.561 -0.219,0.734c-0.164,-0.067 -0.292,-0.314 -0.788,-0.275c-0.146,-0.145 -0.013,-0.133 -0.031,-0.365c0.098,-0.172 0.17,-0.18 0.268,-0.351l-0.037,-0.036c-0.281,0.179 -1.398,1.172 -1.834,0.439c-0.102,-0.113 -0.099,-0.166 -0.073,-0.33c0.277,-0.266 0.747,-0.232 1.063,-0.476l-0.036,-0.074c-0.41,0.013 -0.898,0.27 -1.101,0.147c-0.181,-0.096 -0.229,-0.27 -0.367,-0.403c-0.006,-0.212 0.015,-0.358 0.074,-0.477c0.036,-0.014 0.073,-0.025 0.11,-0.037c1.424,0.459 3.161,1.109 5.063,0.623l1.284,-0.514l0.037,0.037l0.074,0.477l0.11,-0.037c0.511,-0.668 0.68,-0.756 0.465,-1.797c0.037,0.037 0.162,0.143 0.199,0.18c0.317,0.328 0.543,0.46 0.306,1.075c0.666,-0.125 0.9,-0.819 0.799,-1.446c0.049,0.037 0.171,0.093 0.212,0.191c0.061,0.109 0.09,0.252 0.151,0.363c0.036,-0.025 0.138,-0.195 0.162,-0.244c0.117,-0.467 0.34,-0.246 0.567,-0.889c0.049,-0.139 0.007,-0.396 0.04,-0.526c0.022,-0.089 0.087,-0.117 0.107,-0.2c0.046,-0.196 0.074,-0.447 0.059,-0.612c0.07,-0.091 0.133,-0.152 0.192,-0.305c0.076,-0.195 0.137,-0.509 0.141,-0.767c0.963,0.096 2.16,0.262 3.241,0.244c0.741,-0.021 1.492,-0.123 2.237,-0.183c4.996,-0.916 6.301,-0.758 9.338,-0.147c1.232,0.248 3.499,0.209 3.321,-1.064c-0.171,-1.217 -2.901,-1.188 -4.238,-0.881c-2.416,0.555 -4.904,0.885 -7.43,1.359c-1.145,0.213 -2.797,0.483 -3.889,0.036c-1.114,-0.456 -1.85,-1.659 -0.77,-2.678c1.298,-1.227 5.052,-0.713 5.98,-2.129" fill="#FFD400" clip-path="url(#b)"/>
  <path id="svg_25" d="m26.61004,9.2703a0.59,0.59 0 0 1 0.339,0.107c-0.344,1.232 0.897,1.774 1.386,2.344c0.043,0.08 0.085,0.567 -0.271,0.621c0.025,0.549 -0.265,0.942 -0.371,1.032c-0.345,-0.227 -0.537,-0.463 -0.789,-0.662c-0.052,-0.031 -0.049,0.049 -0.074,0.074c0.09,0.38 -0.322,0.902 -0.669,0.972c-0.091,-0.332 -0.121,-0.666 -0.284,-0.908c-0.153,-0.089 -0.086,0.033 -0.11,0.045c-0.042,0.568 -0.291,0.876 -0.643,1.129c-0.024,-0.012 -0.168,0.058 -0.128,-0.027c-0.104,-0.46 -0.399,-0.729 -0.734,-0.955l-0.073,0.037c0.02,0.65 -0.257,0.921 -0.661,1.138l-0.109,-0.074c-0.36,-0.338 -0.172,-0.396 -0.258,-0.697c-0.158,-0.012 -0.265,0.038 -0.477,-0.036c-0.085,0.013 -0.024,0.048 -0.036,0.073c0.108,0.238 0.112,0.457 0.036,0.734c-0.049,0.035 -0.097,0.073 -0.146,0.11c-0.227,-0.221 -0.517,-0.172 -0.755,-0.131c-0.249,-0.376 0.006,-0.656 -0.089,-0.786c-0.303,0.243 -0.772,0.938 -1.421,0.671c-0.085,-0.062 -0.129,0.023 -0.267,-0.194c0.009,-0.305 0.093,-0.314 0.22,-0.477l0.807,-0.368l0,-0.036a1.987,1.987 0 0 0 -0.923,0.28c-0.433,-0.02 -1.059,-0.367 -0.581,-0.757c0.724,-0.407 3.847,0.569 5.515,-0.714c0.083,-0.066 0.062,-0.143 0.062,-0.166c-0.953,-0.619 -1.238,-1.461 -0.367,-2.386c0.037,0.001 0.848,-0.167 1.871,0.007" fill="#FFD400" clip-path="url(#b)"/>
  <path id="svg_26" d="m15.41904,5.2703s-0.085,0.27 0.122,0.354c0.209,0.086 0.355,0.007 0.422,-0.159c0.068,-0.164 0.043,-0.36 -0.177,-0.341c-0.22,0.017 -0.292,0.032 -0.367,0.146m-1.388,-0.311s-0.08,0.379 -0.392,0.231c-0.311,-0.146 -0.165,-0.445 -0.121,-0.561c0.042,-0.116 0.513,0.238 0.513,0.33" clip-path="url(#b)"/>
  <path id="svg_27" d="m36.42704,9.6383s0.321,-0.104 0.431,-0.029c0.111,0.074 0.247,0.201 0.247,0.308c0,0.108 0.083,-0.074 0.098,-0.169c0.015,-0.094 -0.19,-0.389 -0.44,-0.341c-0.25,0.047 -0.41,0.151 -0.336,0.231" fill="#976A3D" clip-path="url(#b)"/>
  <path id="svg_28" d="m11.80804,9.8763s-0.268,-0.19 -0.467,-0.382c-0.201,-0.19 -0.173,-0.114 -0.316,-0.171c-0.143,-0.057 0.057,0.162 0.067,0.363c0.009,0.2 -0.153,0.563 -0.391,0.677c-0.134,0.048 -0.478,-0.458 -0.621,-0.372c-0.143,0.086 0.726,0.964 1.537,1.27c0.812,0.305 0.487,-1.164 0.191,-1.385" fill="#CF8B2D" clip-path="url(#b)"/>
  <path id="svg_29" d="m11.76004,9.7903s0.296,0.067 0.487,0.277c0.191,0.21 0.563,1.241 0.563,1.241s-0.162,0.584 -1.517,-0.2c-0.192,-0.172 0.342,-0.086 0.448,-0.267c0.104,-0.182 0.305,-0.506 0.029,-0.906c-0.106,-0.116 -0.01,-0.145 -0.01,-0.145" fill="#926227" clip-path="url(#b)"/>
  <path id="svg_30" d="m12.21904,10.0583s0.143,0.545 0.286,0.84c0.144,0.297 -0.286,0.334 -0.477,0.334s0.019,0.211 0.219,0.297c0.201,0.086 0.755,0.228 0.936,0.009c0.182,-0.219 -0.964,-1.48 -0.964,-1.48" fill="#754C1F" clip-path="url(#b)"/>
  <path id="svg_31" d="m9.19104,4.1553s0.32,0.021 0.284,0.168c-0.037,0.146 -0.19,1.014 -0.121,1.207c0.068,0.195 0.583,-0.809 0.614,-1.065c0.032,-0.257 -0.147,-0.624 -0.499,-0.604c-0.352,0.021 -0.456,0.268 -0.278,0.294m-0.267,0.678s-0.195,0.299 -0.247,-0.043c-0.053,-0.342 0.073,-0.949 -0.089,-0.934c-0.164,0.016 -0.3,-0.037 -0.305,0.325c-0.005,0.363 0.032,0.94 -0.194,0.904c-0.226,-0.037 -0.294,-0.51 -0.247,-0.799s0.084,-0.787 0.656,-0.777c0.572,0.012 0.515,0.82 0.426,1.324m-0.998,0.355s-0.1,0.516 -0.325,0.116c-0.226,-0.399 -0.336,-0.504 -0.352,-0.266c-0.016,0.235 0.021,0.408 0.021,0.482c0,0.073 -0.373,0.1 -0.404,-0.121c-0.032,-0.221 -0.011,-0.582 0.121,-0.745c0.13,-0.163 0.713,-0.185 0.939,0.534m0.016,1.13s-0.315,-0.368 -0.646,-0.132s0.052,0.274 0.137,0.51c0.083,0.236 0.236,0.215 0.231,0.053c-0.006,-0.163 -0.316,-0.284 -0.221,-0.383c0.095,-0.101 0.525,0.277 0.499,-0.048m0.236,1.591s-0.394,-0.143 -0.588,-0.037c-0.194,0.105 -0.231,0.226 -0.079,0.252c0.153,0.026 0.252,-0.105 0.457,-0.069c0.205,0.038 0.378,-0.02 0.21,-0.146m0.336,0.714s-0.341,0.121 -0.52,0.263c-0.178,0.142 -0.042,0.21 0.237,0.293c0.278,0.085 0.047,-0.12 0.236,-0.299c0.189,-0.178 0.131,-0.304 0.047,-0.257m0.541,0.893c-0.125,-0.044 -0.53,0.199 -0.63,0.315c-0.099,0.116 0.131,0.057 0.378,-0.043s0.446,-0.205 0.252,-0.272m0.646,0.692s-0.189,-0.062 -0.315,0.143s-0.184,0.267 -0.101,0.314c0.085,0.047 0.227,-0.016 0.274,-0.152c0.033,-0.095 0.263,-0.225 0.142,-0.305m0.798,0.483s-0.179,0.017 -0.305,0.253s-0.031,0.293 0.111,0.236c0.141,-0.058 0.372,-0.525 0.194,-0.489m0.746,0.688s0.037,0.073 -0.131,0.194c-0.168,0.121 0.07,0.088 0.246,-0.078c0.09,-0.084 -0.042,-0.231 -0.115,-0.116m0.764,-5.424s-0.341,0.197 -0.444,0.44c-0.103,0.244 0.289,-0.068 0.402,-0.148c0.115,-0.08 0.194,-0.368 0.042,-0.292m-0.049,0.854s-0.261,0.346 -0.288,0.615c-0.027,0.27 0.064,0.121 0.227,-0.144c0.164,-0.266 0.16,-0.243 0.209,-0.346c0.049,-0.102 -0.038,-0.27 -0.148,-0.125m-0.011,1.329s0.064,-0.33 0.193,-0.447c0.13,-0.118 0.156,0.097 0.073,0.31c-0.084,0.213 -0.133,0.445 -0.224,0.52c-0.091,0.076 -0.057,-0.279 -0.042,-0.383m0.353,0.326s0.137,-0.125 0.164,-0.008c0.025,0.118 -0.144,0.396 -0.191,0.589c-0.045,0.193 -0.204,0.406 -0.262,0.118c-0.056,-0.289 0.05,-0.273 0.118,-0.402c0.068,-0.13 0.084,-0.225 0.171,-0.297m0.121,0.881s0.133,-0.231 0.278,-0.129c0.144,0.103 0.022,0.342 0.265,0.809c0.243,0.466 0.657,1.062 0.786,1.217c0.129,0.157 0.167,0.145 0.106,0.388c-0.06,0.243 -0.167,0.266 -0.303,0.053c-0.137,-0.213 -0.809,-1.018 -0.957,-1.222c-0.148,-0.206 -0.368,-0.891 -0.175,-1.116m1.584,0.623s0.587,0.482 0.764,0.782c0.178,0.3 0.252,0.441 0.343,0.318c0.092,-0.122 -0.135,-0.434 -0.44,-0.728c-0.306,-0.294 -0.758,-0.647 -0.667,-0.372m1.156,-0.331s0.378,0.282 0.47,0.452c0.092,0.172 0.166,-0.024 0.05,-0.17c-0.117,-0.147 -0.6,-0.513 -0.52,-0.282m1.193,-0.655s-0.147,-0.195 -0.312,-0.226s-0.031,0.098 0.055,0.233c0.086,0.134 0.11,0.305 0.098,0.471c-0.012,0.165 0.14,0.293 0.226,0.029c0.085,-0.262 -0.067,-0.507 -0.067,-0.507m0.054,-0.899s-0.114,-0.184 -0.275,0.043c-0.031,0.043 0.177,0.294 0.214,0.514c0.037,0.22 0.22,0.091 0.232,-0.135c0.013,-0.226 -0.171,-0.422 -0.171,-0.422m0.171,-0.746s0.049,0.166 -0.005,0.35c-0.056,0.182 0.183,0.336 0.207,0.072c0.025,-0.262 -0.006,-0.44 -0.202,-0.422m-0.202,-1.467s0.202,0.428 0.056,0.697c-0.147,0.269 0.102,0.17 0.176,0.012c0.24,-0.508 -0.322,-0.832 -0.232,-0.709m-2.88,0.498s-0.252,0.104 -0.234,0.412c0.019,0.309 0.244,0.553 0.534,0.543c0.29,-0.01 0.234,-0.158 0.065,-0.187c-0.168,-0.028 -0.374,-0.197 -0.346,-0.45s0.094,-0.365 -0.019,-0.318m-0.58,-0.234s-0.59,0 -0.618,-0.468c-0.028,-0.468 0.131,-0.44 0.206,-0.505c0.076,-0.066 0.197,0.056 0.084,0.196c-0.111,0.14 0.029,0.552 0.225,0.581c0.197,0.028 0.336,0.15 0.103,0.196m-0.637,-1.301s0.271,0.355 0.3,0.112c0.027,-0.243 -0.197,-0.374 -0.103,-0.702c0.093,-0.328 0.028,-0.533 0.158,-0.392c0.132,0.139 0.3,0.055 0.225,-0.132c-0.075,-0.188 -0.542,-0.637 -0.608,-0.384c-0.065,0.252 -0.159,1.301 0.028,1.498m0.786,-1.207s0.207,0.309 0.281,0.055c0.074,-0.252 0.159,-0.271 0.243,-0.177c0.084,0.093 -0.14,-0.646 -0.317,-0.6c-0.179,0.047 -0.207,0.722 -0.207,0.722m0.881,-0.151s0.168,-0.402 0.225,-0.3c0.056,0.103 0.14,0.075 0.093,-0.178c-0.047,-0.252 -0.047,-0.496 -0.169,-0.336c-0.121,0.158 -0.309,0.834 -0.149,0.814m0.777,-0.14s0.15,-0.113 0.206,-0.037c0.056,0.074 0.15,0.131 0.15,-0.094c0,-0.224 -0.141,-0.599 -0.291,-0.3c-0.149,0.3 -0.122,0.31 -0.065,0.431m0.627,0.159s0.206,0.028 0.281,-0.028c0.075,-0.056 0.028,0.113 0.075,0.177c0.046,0.067 0.186,-0.29 0.065,-0.589c-0.122,-0.299 -0.431,0.244 -0.421,0.44m0.674,0.496s0.075,0.094 0.169,0.169c0.093,0.074 0.234,0.327 0.262,0.027c0.027,-0.299 -0.244,-0.59 -0.3,-0.459a2.86,2.86 0 0 1 -0.131,0.263m0.637,0.496s0.318,-0.3 0.505,-0.234c0.188,0.066 0.45,-0.009 0.328,-0.16c-0.122,-0.149 -0.618,-0.139 -0.711,-0.017c-0.095,0.121 -0.187,0.346 -0.122,0.411m-2.247,0.347s0.206,-0.355 0.291,-0.094c0.084,0.262 -0.123,0.487 -0.216,0.833c-0.094,0.347 -0.253,0.31 -0.084,0.357c0.168,0.047 0.28,0.159 0.028,0.139c-0.253,-0.018 -0.515,0.198 -0.393,-0.074s0.176,-0.956 0.374,-1.161m13.261,5.385s-0.674,-1.24 -0.205,-1.543c0.168,-0.107 0.06,0.555 0.506,1.17c0.445,0.613 1.337,1.131 2.481,1.119c1.144,-0.012 1.313,0.097 0.518,0.229c-0.795,0.132 -2.445,0.482 -3.3,-0.975m3.127,-1.615s-0.489,-0.478 -0.869,-0.538c-0.379,-0.061 -0.293,0.158 0.013,0.318c0.306,0.158 1.333,1.321 2.532,1.565c1.198,0.245 3.179,-0.244 3.877,-0.452c0.697,-0.208 0.733,0 0.856,0.219c0.122,0.221 0.232,-0.011 0.086,-0.452c-0.147,-0.44 -0.637,-0.379 -1.957,0.062c-1.321,0.439 -2.042,0.439 -2.972,0.086c-0.93,-0.355 -0.906,-0.539 -1.566,-0.808m6.849,0.636s0.281,-0.135 0.489,0.27c0.073,0.122 0.025,-0.013 -0.281,0c-0.306,0.011 -0.354,-0.221 -0.208,-0.27m0.245,1.113s0.403,0.22 0.538,0.367c0.134,0.147 0.245,-0.061 -0.049,-0.318c-0.294,-0.258 -0.551,-0.22 -0.489,-0.049m0.269,0.966s0.318,0.122 0.465,0.354c0.147,0.233 0.33,0.27 0.171,-0.023a1.665,1.665 0 0 0 -0.472,-0.492c-0.164,-0.106 -0.303,0.109 -0.164,0.161m0.122,0.709s-0.293,0.099 -0.085,0.282c0.208,0.184 0.415,0.134 0.306,0.33c-0.11,0.196 0.256,-0.037 0.318,-0.074c0.06,-0.036 -0.099,-0.244 -0.233,-0.367c-0.134,-0.121 -0.171,-0.244 -0.306,-0.171m-1.638,0.038s0.17,-0.453 0.244,-0.038c0.073,0.416 0.012,0.697 -0.44,1.028c-0.452,0.33 -0.807,0.404 -1.076,0.366c-0.27,-0.036 -0.466,-0.11 0,-0.208c0.464,-0.097 0.782,-0.17 0.978,-0.416c0.196,-0.244 0.343,-0.354 0.294,-0.732" fill="#FFE380" clip-path="url(#b)"/>
  <path id="svg_32" d="m35.63604,12.8353s-0.392,0.074 -0.611,0.012c-0.221,-0.061 -0.38,0.013 -0.392,0.183c-0.012,0.172 -0.146,0.148 -0.183,-0.06s0.024,-0.514 0.207,-0.538c0.184,-0.025 0.661,0.122 0.979,0.403m0.979,0.373s0.107,-0.16 0.25,-0.232c0.143,-0.071 0.184,0.018 0.089,0.214c-0.095,0.197 -0.321,0.35 -0.244,0.524c0.077,0.172 0.131,0.136 -0.065,0.237c-0.197,0.101 -0.381,0.077 -0.268,-0.179c0.113,-0.255 0.238,-0.564 0.238,-0.564m-19.043,-5.309s1.178,0.449 3.485,0.158c2.308,-0.292 3.96,-0.668 6.51,-0.68c2.551,-0.013 5.028,0.68 6.012,0.62c0.984,-0.063 0.186,-0.403 -0.988,-0.532c-1.174,-0.128 -4.99,-0.918 -8.347,-0.238c-3.357,0.68 -5.448,0.606 -6.275,0.514c-0.825,-0.092 -0.397,0.158 -0.397,0.158m2,-2.417s-0.075,0.767 1.234,0.963c1.309,0.196 2.227,-0.075 2.482,-0.151c0.256,-0.075 0.211,-0.255 -0.511,-0.255s-1.52,0.27 -2.182,-0.016c-0.662,-0.285 -1.023,-0.541 -1.023,-0.541m-0.856,-0.342s0.243,-0.838 1.411,-1.234c1.168,-0.398 3.659,-0.618 4.342,-0.949c0.684,-0.331 0.508,0.066 0.508,0.066s0.11,0.265 0.594,0.199c0.485,-0.066 1.081,-0.242 2.425,-0.045c1.345,0.199 1.345,-0.176 2.029,-0.33c0.683,-0.154 1.608,-0.507 0.947,-0.529c-0.661,-0.022 -1.697,0.551 -2.954,0.42c-1.256,-0.133 -2.292,-0.067 -2.887,0.242c-0.596,0.308 0.132,-0.154 0.043,-0.662c-0.087,-0.507 -0.197,0.33 -2.005,0.617c-1.807,0.287 -4.519,0.662 -4.453,2.205m5.01,0.4s0.199,0.318 0.093,0.437c-0.107,0.12 0.146,0.092 0.146,-0.291c0,-0.384 -0.173,-0.226 -0.239,-0.146m1.112,0.105s0.212,-0.186 0.451,-0.424c0.238,-0.238 -0.133,-0.384 -0.253,-0.211c-0.118,0.172 0.08,0.344 -0.132,0.477c-0.212,0.133 -0.066,0.158 -0.066,0.158m3.192,-1.099l0.106,0.424s-0.517,-0.083 -0.517,-0.569c0,-0.225 0.411,0.145 0.411,0.145m1.484,0.517s0.106,-0.41 0.159,-0.518c0.053,-0.105 -0.437,-0.33 -0.451,-0.198c-0.013,0.133 0.173,0.741 0.292,0.716m1.496,-0.238s0.212,-0.305 0.265,-0.504c0.053,-0.198 -0.702,-0.424 -0.557,-0.172c0.146,0.252 0.133,0.623 0.292,0.676m1.034,-0.385s0.397,0.557 0.357,0.226s0.08,-0.57 -0.158,-0.703c-0.24,-0.132 -0.199,0.477 -0.199,0.477m1.43,-0.701s-0.344,0.265 -0.292,0.676c0.053,0.41 0.279,0.423 0.305,0c0.027,-0.425 -0.013,-0.676 -0.013,-0.676m1.204,0.251s-0.238,0.569 -0.251,0.86c-0.014,0.292 0.278,0.452 0.357,-0.025c0.08,-0.478 0.186,-0.769 0.252,-1.021c0.066,-0.251 -0.358,0.186 -0.358,0.186m0.928,1.324s-0.106,-0.437 0.609,-0.741c0.37,-0.158 0.994,-0.226 0.994,-0.226s0.225,0.187 -0.848,0.517c-0.41,0.146 -0.649,0.702 -0.675,1.019c-0.027,0.32 -0.2,-0.238 -0.08,-0.569m0.742,2.107s0.238,-0.345 1.205,-0.345c0.967,0 1.099,-0.251 1.298,-0.476c0.198,-0.226 -0.04,-0.054 -0.411,0.092s-0.794,-0.027 -1.47,0.172c-0.676,0.2 -0.622,0.557 -0.622,0.557m-11.711,1.906s-0.541,0.539 -0.446,1.158c0.054,0.355 0.391,0.846 0.566,0.91c0.175,0.065 0.315,-0.047 0.194,-0.25c-0.12,-0.202 -0.627,-0.23 -0.545,-1.107c0.032,-0.34 0.012,-0.408 0.231,-0.711m2.392,0.988s1.145,1.053 1.292,1.209c0.148,0.158 0.213,0.406 0.148,0.572c-0.065,0.167 -0.923,0.158 -0.692,-0.193c0.231,-0.352 -0.776,-1.164 -0.748,-1.588m-7.105,2.121s-0.313,0.199 0.052,0.324c0.366,0.125 2.35,0.303 3.448,0.021c1.096,-0.283 1.305,-0.398 1.619,-0.899c-0.283,0.095 -1.286,0.648 -4.075,0.523c-0.478,-0.021 -0.856,-0.031 -1.044,0.031m0.805,0.752s0.449,-0.104 0.438,0.062c-0.01,0.168 -0.459,0.283 -0.772,0.555s-0.491,0.114 -0.449,-0.105c0.04,-0.219 0.355,-0.47 0.783,-0.512m1.152,0.341s-0.017,0.093 -0.031,0.294c-0.013,0.203 0.036,0.375 0.036,0.375s-0.215,0.101 -0.247,-0.344c-0.013,-0.211 0.167,-0.325 0.242,-0.325m2.601,-0.294s0.11,-0.109 0.321,0.083c0.211,0.192 0.285,0.696 0.165,0.881a1.87,1.87 0 0 0 -0.486,-0.964m1.395,-0.293s0.027,-0.229 0.138,-0.01c0.11,0.221 0.275,0.588 0.201,0.881c-0.064,0.102 -0.156,0.055 -0.238,-0.385a5.247,5.247 0 0 0 -0.101,-0.486m-2.397,0.606s0.241,0.026 0.197,0.404c-0.043,0.379 -0.137,0.379 -0.275,0.207c-0.138,-0.172 -0.078,-0.731 0.078,-0.611m3.483,-0.874s0.554,0.57 0.667,0.71s0.307,-0.054 0.183,-0.27c-0.124,-0.214 -0.457,-0.435 -0.85,-0.44m-19.828,-0.184s0,-0.327 0.327,-0.241c0.326,0.086 2.348,0.679 3.372,0.679s2.151,-0.334 2.099,-0.55c-0.052,-0.215 -0.37,-0.018 -0.878,0.026c-0.507,0.043 -2.262,0.163 -3.991,-0.37c-0.453,-0.139 -1.058,-0.283 -1.024,0.068c0.034,0.354 0.052,0.474 0.095,0.388" fill="#FFE380" clip-path="url(#b)"/>
  <path id="svg_33" d="m8.21004,12.7393s0.456,-0.129 0.517,0.155c0.059,0.284 -0.827,0.224 -0.973,0.439c-0.146,0.215 0.112,0.343 0.043,0.396c-0.068,0.051 -0.516,-0.559 -0.232,-0.731c0.284,-0.173 0.327,-0.19 0.645,-0.259m2.727,0.758s-0.077,0.438 -0.171,0.594c-0.095,0.154 -0.423,0.162 -0.423,0.162s0.223,-0.852 0.594,-0.756m0.61,0.163s-0.017,-0.318 0.086,-0.163c0.103,0.154 0.396,0.809 -0.343,0.894c0.094,-0.421 0.257,-0.731 0.257,-0.731m4.713,-2.003s0.276,0.18 0.39,0.315c0.113,0.134 0.453,0.433 0.251,0.695c-0.202,0.261 -0.559,0.449 -0.839,0.388c-0.28,-0.059 0.11,-0.161 0.261,-0.322c0.315,-0.332 -0.258,-1.201 -0.063,-1.076m-8.24,-0.143s-0.018,-0.405 0.172,-0.161c0.19,0.244 0.303,0.428 0.446,0.523c0.143,0.096 -0.137,-0.209 -0.208,-0.445c-0.071,-0.238 -0.499,-0.583 -0.582,-0.393c-0.084,0.189 0,0.712 0.172,0.476m4.594,2.282s0.043,-0.271 0.17,-0.086c0.127,0.186 0.106,0.346 0.063,0.51c-0.042,0.164 -0.212,0.232 -0.212,0.232l-0.021,-0.656zm1.134,-0.006s-0.042,-0.323 0.08,-0.18c0.121,0.143 0.179,0.36 0.11,0.731c-0.137,-0.413 -0.19,-0.551 -0.19,-0.551m1.129,-0.164s0.281,0.021 0.371,0.328c0.09,0.308 -0.132,0.127 -0.26,-0.085c-0.128,-0.212 -0.228,-0.291 -0.111,-0.243" fill="#FFE380" clip-path="url(#b)"/>
  <path id="svg_34" d="m12.92404,6.7323c0.077,-0.241 0.109,0.126 0.094,0.255c-0.027,0.223 -0.132,0.58 -0.057,0.882c0.135,0.548 0.621,0.569 0.689,0.76c0.029,0.059 -0.032,0.082 -0.102,0.047c-0.912,-0.3 -1.02,-1.093 -0.624,-1.944" fill="#FFD400" clip-path="url(#b)"/>
  <path id="svg_35" d="m13.67704,4.7943s-0.165,-0.024 -0.141,0.109c0.025,0.135 0.092,0.178 0.141,0.112c0.049,-0.069 0.08,-0.184 0,-0.221m1.877,0.464s-0.134,0.056 -0.085,0.208c0.049,0.153 0.245,0.11 0.251,0.006c0.005,-0.104 -0.031,-0.25 -0.166,-0.214" fill="#FFF" clip-path="url(#b)"/>
  <path id="svg_36" d="m20.59304,11.7223c0.038,-0.08 0.177,-0.104 0.33,0c0.144,0.186 0.42,0.248 0.476,0.491c-0.012,0.025 -0.17,0.035 -0.182,0.06c-0.229,-0.012 -0.764,0.006 -0.917,-0.11l0.293,-0.441" fill="#FFD400" clip-path="url(#b)"/>
  <path id="svg_37" d="m12.92404,6.7323c0.077,-0.241 0.11,0.126 0.094,0.255c-0.026,0.223 -0.131,0.58 -0.057,0.882c0.135,0.548 0.621,0.569 0.689,0.761c0.029,0.058 -0.031,0.082 -0.102,0.046c-0.911,-0.3 -1.02,-1.093 -0.624,-1.944m7.669,4.989c0.038,-0.08 0.177,-0.103 0.33,0c0.144,0.186 0.42,0.248 0.476,0.492c-0.012,0.024 -0.17,0.035 -0.182,0.059c-0.229,-0.012 -0.763,0.006 -0.917,-0.109l0.293,-0.442m2.495,-6.017c-0.816,0.072 -3.237,0.694 -3.334,-0.385c-0.02,-0.082 0.061,-0.186 0.074,-0.197c0.34,-0.692 1.568,-0.741 2.453,-0.885l0.917,-0.037c0.501,0.125 1.685,0.139 1.981,0.588c-0.452,0.051 -0.566,0.257 -0.697,0.623c-0.426,-0.057 -1.066,-0.243 -1.357,0.109c-0.002,0.11 0.008,0.075 -0.037,0.184m15.19,7.558c-0.307,-0.021 -0.332,-0.124 -0.477,-0.293l-0.073,0.037c-0.089,0.45 -0.204,0.769 -0.477,1.028c-0.291,-0.078 -0.372,-0.252 -0.754,-0.082c-0.071,-0.043 -0.054,-0.139 -0.054,-0.176c0.043,-0.262 0.144,-0.371 0.243,-0.565c0.016,-0.032 0.033,-0.062 0.051,-0.095c0.041,-0.054 0.053,-0.127 -0.036,-0.073l-0.258,0.219c-0.119,0.381 -0.204,0.709 -0.697,0.735c-0.308,-0.168 -0.329,-0.491 -0.587,-0.698l0.037,-0.073c0.465,-0.183 0.93,-0.366 1.394,-0.551c0.283,-0.909 0.019,-1.45 -0.605,-1.681c-1.355,-0.503 -5.061,0.541 -6.77,0.104c-0.702,-0.179 -1.638,-0.773 -1.908,-1.394a1.088,1.088 0 0 1 0.006,-0.783c0.036,-0.082 -0.081,-0.07 -0.116,-0.061l-0.146,0.33c-0.355,-0.073 -0.71,-0.146 -1.065,-0.221c-1.667,-0.054 -2.811,0.571 -3.595,0.918c-1.575,0.698 -2.576,1.908 -5.731,1.474c-0.119,-0.056 -0.152,-0.019 -0.176,-0.007c0.034,0.613 0.414,0.698 0.437,1.363c-0.228,0.391 -0.566,0.551 -0.914,0.729c-0.089,0.049 -0.131,-0.115 -0.177,-0.258c-0.065,-0.041 -0.056,0.1 -0.08,0.111c0.051,0.51 -0.273,0.711 -0.624,0.918c-0.084,0.057 -0.1,0.044 -0.134,-0.191c-0.122,-0.197 -0.183,-0.237 -0.306,-0.434c-0.054,-0.084 -0.102,-0.086 -0.074,0.038c-0.033,0.39 -0.231,0.559 -0.513,0.697c-0.118,0.082 -0.176,0.088 -0.147,-0.037c-0.016,-0.323 -0.173,-0.551 -0.44,-0.623c-0.048,0.468 -0.349,0.61 -0.698,0.77c-0.121,0.064 -0.132,0.032 -0.109,-0.11c0.058,-0.241 0.024,-0.613 -0.215,-0.688c-0.088,0.433 -0.564,0.752 -1.07,0.762c0.067,-0.311 0.212,-0.469 0.184,-0.809c-0.024,-0.023 -0.049,-0.126 -0.073,-0.15c-0.173,0.407 -0.452,0.596 -0.881,0.775c-0.097,0.024 -0.237,0.08 -0.274,0.044c0.066,-0.026 0.124,-0.354 0.254,-0.487c0.135,-0.17 0.252,-0.23 0.387,-0.401l-0.074,-0.036l-0.844,-0.038c0.043,0.35 0.005,0.562 -0.22,0.735c-0.163,-0.068 -0.292,-0.315 -0.787,-0.276c-0.146,-0.144 -0.013,-0.132 -0.031,-0.365c0.098,-0.172 0.17,-0.179 0.268,-0.35l-0.037,-0.037c-0.282,0.179 -1.398,1.172 -1.834,0.44c-0.102,-0.113 -0.099,-0.166 -0.074,-0.33c0.278,-0.267 0.747,-0.233 1.064,-0.477l-0.036,-0.074c-0.411,0.014 -0.898,0.271 -1.101,0.148c-0.181,-0.096 -0.229,-0.27 -0.367,-0.404c-0.006,-0.212 0.015,-0.357 0.074,-0.476c0.036,-0.014 0.073,-0.026 0.109,-0.037c1.424,0.459 3.162,1.109 5.063,0.623l1.285,-0.514l0.037,0.037l0.073,0.477l0.11,-0.038c0.512,-0.667 0.681,-0.755 0.466,-1.796c0.036,0.037 0.162,0.142 0.198,0.179c0.318,0.328 0.544,0.46 0.307,1.075c0.666,-0.125 0.9,-0.819 0.799,-1.446c0.049,0.037 0.171,0.094 0.211,0.192c0.062,0.109 0.091,0.252 0.152,0.363c0.036,-0.025 0.137,-0.195 0.162,-0.244c0.116,-0.467 0.34,-0.246 0.567,-0.89c0.048,-0.139 0.007,-0.395 0.04,-0.525c0.022,-0.089 0.087,-0.117 0.107,-0.2c0.046,-0.197 0.074,-0.448 0.059,-0.613c0.07,-0.091 0.133,-0.151 0.192,-0.304c0.075,-0.196 0.136,-0.509 0.141,-0.767c0.963,0.096 2.159,0.262 3.24,0.244c0.742,-0.021 1.493,-0.123 2.238,-0.184c4.996,-0.916 6.301,-0.757 9.338,-0.146c1.232,0.248 3.499,0.209 3.32,-1.064c-0.17,-1.217 -2.9,-1.188 -4.237,-0.881c-2.416,0.554 -4.904,0.884 -7.43,1.358c-1.146,0.214 -2.797,0.483 -3.889,0.036c-1.114,-0.456 -1.85,-1.658 -0.771,-2.678c1.299,-1.226 5.053,-0.712 5.981,-2.128c0.4,0.251 0.03,1.052 -0.073,1.321c0.462,-0.128 0.792,-0.413 1.394,-0.515c0.851,-0.142 1.632,0.321 2.495,0.112c0.81,-0.199 1.584,-0.983 2.531,-0.514l-0.036,0.072c-0.93,0.166 -1.459,1.058 -2.275,1.395c-0.668,0.276 -1.581,0.048 -2.264,0.083c0,0.012 0.062,0.051 0.062,0.064c0.979,0.413 0.877,0.882 1.392,1.27c-0.037,0.024 -0.144,0.063 -0.181,0.088c-0.442,0.223 -1.149,0.028 -1.541,-0.148c-0.452,-0.28 -0.906,-0.561 -1.358,-0.844c-1.217,-0.691 -4.952,-0.57 -5.429,0.698c-0.323,0.786 0.624,1.195 1.851,1.089c0.955,-0.084 1.981,-0.302 2.368,-0.281l0,-0.038a4.191,4.191 0 0 1 -0.073,-0.11l-0.221,-0.11l0.037,-0.074c0.44,-0.084 0.641,0.087 1.027,0.184c0.091,-0.262 0.17,-0.504 0.367,-0.66c0.39,0.082 0.945,0.499 1.211,0.294c0.476,0.249 1.663,0.667 2.311,-0.111c-0.223,-0.083 -0.652,-0.439 -0.697,-0.702c0.434,0.09 0.887,0.487 1.394,0.519l0.074,-0.11c0.012,-0.146 -0.038,-0.314 -0.025,-0.461c0.014,-0.082 0.083,-0.115 0.208,-0.015c0.379,0.238 1.008,0.541 1.578,0.439c0.031,-0.309 -0.29,-0.474 -0.264,-0.823c0.241,0.127 1.283,0.657 1.438,0.53c-0.012,-0.183 -0.121,-0.423 -0.133,-0.605c0.049,0.048 0.195,0.152 0.243,0.201l0.587,0.514l0.074,0c0.13,-0.324 0.204,-0.684 0.376,-0.95c0.1,-0.084 0.076,0.094 0.101,0.106c0.181,0.495 0.541,0.914 0.954,1.101c0.257,-0.3 -0.015,-0.744 0.61,-1.26c0,0.024 -0.097,0.318 -0.097,0.342c-0.01,0.688 0.024,1.051 0.441,1.395c0.382,-0.076 0.363,-0.396 0.587,-0.625c0.387,-0.395 1.263,-0.141 1.711,-0.801c-0.372,1.147 -1.085,0.98 -1.376,1.445c-0.259,0.411 -0.022,0.688 -0.152,1.301c-0.064,0.307 -0.27,0.469 -0.403,0.697l0.036,0c0.44,-0.2 0.67,-0.613 1.065,-0.806c0.535,-0.263 1.463,0.127 2.233,-0.214c-0.664,1.189 -1.336,0.768 -2.177,1.011c-0.375,0.109 -0.529,0.332 -0.827,0.486c-0.435,0.227 -1.027,0.306 -1.578,0.404c-1.233,0.221 -3.01,-0.184 -3.88,-0.215c-0.035,0.036 -0.028,0.124 0.028,0.178c0.661,0.807 1.423,1.281 2.715,1.468c1.702,0.245 3.73,-1.704 4.916,-0.11c-0.024,0.025 -0.049,0.048 -0.073,0.074c-0.085,-0.026 -0.171,-0.049 -0.257,-0.074l-0.074,0.074c0.277,0.52 0.904,0.473 0.955,1.283l-0.037,0.074l-0.441,-0.146l-0.036,0.036c0.155,0.292 0.465,0.622 0.477,0.917l-0.403,-0.072l-0.038,0.403c0.062,0.04 0.139,-0.009 0.2,0.03c0.049,0.034 0.189,0.043 0.285,0.29c-0.425,0.156 -0.409,0.366 -0.521,0.706m-3.491,-0.011c-0.164,-0.051 -0.141,-0.059 -0.246,-0.151c-0.133,-0.31 -0.039,-0.578 0.093,-0.631c0.406,-0.007 0.781,0.175 1.001,0.357l-0.146,0.069c-0.269,0.086 -0.477,0.393 -0.702,0.356m-6.452,-1.53c0.042,0.08 0.085,0.567 -0.272,0.621c0.026,0.549 -0.264,0.942 -0.371,1.032c-0.344,-0.227 -0.536,-0.463 -0.788,-0.661c-0.052,-0.032 -0.049,0.048 -0.074,0.073c0.09,0.381 -0.322,0.902 -0.669,0.972c-0.091,-0.332 -0.121,-0.666 -0.285,-0.908c-0.152,-0.089 -0.085,0.033 -0.109,0.045c-0.042,0.569 -0.291,0.876 -0.643,1.129c-0.024,-0.012 -0.168,0.059 -0.128,-0.027c-0.104,-0.46 -0.399,-0.729 -0.734,-0.954a4.993,4.993 0 0 0 -0.073,0.036c0.02,0.65 -0.257,0.922 -0.661,1.138l-0.11,-0.074c-0.359,-0.338 -0.171,-0.396 -0.257,-0.697c-0.159,-0.012 -0.265,0.038 -0.477,-0.036c-0.085,0.013 -0.024,0.049 -0.036,0.073c0.107,0.238 0.112,0.457 0.036,0.734a7.954,7.954 0 0 0 -0.146,0.11c-0.227,-0.221 -0.517,-0.172 -0.755,-0.131c-0.249,-0.376 0.006,-0.656 -0.089,-0.786c-0.303,0.243 -0.773,0.938 -1.421,0.671c-0.085,-0.062 -0.129,0.023 -0.267,-0.194c0.009,-0.304 0.093,-0.314 0.22,-0.477l0.807,-0.367l0,-0.037a1.987,1.987 0 0 0 -0.923,0.28c-0.433,-0.02 -1.059,-0.366 -0.581,-0.757c0.723,-0.407 3.847,0.569 5.514,-0.714c0.083,-0.065 0.063,-0.142 0.063,-0.166c-0.953,-0.619 -1.238,-1.461 -0.367,-2.386c0.036,0 0.847,-0.168 1.871,0.007a0.584,0.584 0 0 1 0.339,0.108c-0.344,1.231 0.897,1.773 1.386,2.343m-20.511,-0.843c0.576,0.097 1.006,0.763 1.285,1.173l0,0.038l-0.184,0c-0.582,-0.176 -1.106,-0.178 -1.32,-0.735c0.063,-0.222 0.11,-0.324 0.219,-0.476m4,0.661c-0.177,0.231 -0.445,0.357 -0.77,0.44l0,-0.991c0.001,-0.019 -0.024,-0.023 -0.037,0c-0.242,0.143 -0.535,0.352 -0.938,0.236c0.167,-0.334 0.211,-0.764 0.13,-0.75l-0.036,0c-0.364,0.081 -0.621,0.238 -1.002,0.179c-0.101,-0.02 -0.05,-0.07 -0.026,-0.106l0.257,-0.66c-0.376,0.062 -0.706,0.121 -1.069,-0.037c0.086,-0.086 0.213,-0.171 0.299,-0.256c0.072,-0.093 0.122,-0.197 0.183,-0.295l-0.073,-0.072c-0.316,0.091 -0.657,-0.077 -0.928,-0.179c0.09,-0.112 0.152,-0.194 0.304,-0.299c0.138,-0.058 0.263,-0.153 0.22,-0.219c-0.036,-0.025 -0.031,-0.086 -0.099,-0.1c-0.368,-0.045 -0.754,-0.067 -1.002,-0.293c0.025,-0.037 0.086,-0.084 0.11,-0.121c0.313,-0.261 0.371,-0.235 0.844,-0.22c0,-0.012 0.064,0.002 0.006,-0.089c-0.212,-0.335 -0.102,-1.042 -0.136,-0.897c-0.088,0.467 -0.806,0.528 -0.787,0.363c0.013,-0.811 -0.299,-0.545 -0.358,-0.741c-0.044,-0.142 0.071,-0.291 0.285,-0.418c0.495,-0.297 0.785,0.278 0.697,-0.016c-0.049,-0.062 -0.056,-0.144 -0.147,-0.184c-0.387,-0.075 -0.716,-0.251 -0.807,-0.44c-0.072,-0.18 -0.05,-0.446 0.089,-0.66a0.364,0.364 0 0 1 0.168,-0.11c0.411,-0.06 0.799,0.727 0.843,0.551c-0.21,-0.624 -0.297,-1.326 0.271,-1.559c0.117,-0.031 0.344,-0.041 0.5,0.127c0.261,0.319 -0.034,1.17 0,1.797c0.039,0.697 0.422,1.539 0.734,2.055c0.26,0.387 0.563,0.765 0.954,1.139c0.349,0.271 0.887,0.618 1.25,0.693c0.046,0.111 0.137,0.308 0.181,0.443c0.065,0.069 0.115,0.115 0.225,0.194c0.195,0.31 0.474,0.686 1.085,1.504c0.059,0.05 0.061,0.135 0.074,0.185c-0.592,0.109 -1.026,-0.018 -1.494,-0.194m-2.679,-7.486c0.002,-0.103 0.187,-0.121 0.268,-0.121c0.261,0.013 0.273,0.094 0.429,0.195c0.295,0.366 -0.328,0.725 -0.579,1.841c-0.025,0.081 -0.049,0.156 -0.061,0.156a0.365,0.365 0 0 1 -0.057,-0.126c-0.17,-0.675 -0.02,-1.247 0,-1.945m2.603,4.389c-0.187,-0.436 0.305,-0.959 0.442,-1.232c0.035,-0.098 -0.001,-0.077 -0.036,-0.037c-0.171,0.183 -0.334,0.394 -0.505,0.578c-0.028,0.029 -0.079,0.007 -0.075,-0.036c0,-0.109 0,-0.245 0.03,-0.323c0.16,-0.489 0.269,-0.751 0.663,-1.102c0.041,-0.022 -0.005,-0.094 -0.077,-0.073c-0.183,0.063 -0.461,0.217 -0.644,0.28c0,-0.063 0.037,-0.229 0.074,-0.315c0.109,-0.16 0.204,-0.324 0.35,-0.441c0.045,-0.018 0.081,-0.015 0.112,0.002a0.4,0.4 0 0 0 0.069,0.232c0.131,0.188 0.315,0.427 0.368,0.451c0.104,0.05 0.21,0.1 0.295,0.159c-0.331,0.716 -0.574,1.474 0.331,2.129c0.175,0.126 0.395,0.216 0.574,0.244c0.112,0.213 0.68,0.345 0.82,0.159c0.196,-0.036 0.391,-0.073 0.587,-0.111c0.63,-0.273 0.91,-0.851 0.917,-1.541c0.414,-0.015 0.521,-0.2 0.734,-0.403l0.074,0.111c0.171,0.31 0.002,0.808 -0.147,1.027l-0.33,-0.331l-0.037,0c0.097,0.345 0.319,0.672 0.183,1.064l-0.073,-0.036c-0.061,-0.187 -0.133,-0.277 -0.33,-0.331l0,0.037c0.227,0.383 0.476,1.099 0,1.468l-0.037,0c-0.006,-0.373 -0.151,-0.643 -0.367,-0.808l-0.073,0.074c0.102,0.234 0.383,0.839 0.208,1.14c-0.294,-0.22 -0.632,-0.549 -0.926,-0.769c0,0.037 0.09,0.248 0.13,0.293c0.195,0.295 0.38,0.685 -0.057,1.33c-0.242,-0.721 -1.199,-1.248 -1.381,-1.664c-0.039,0.717 0.884,1.223 0.154,2.238l-0.073,-0.037c-0.188,-0.631 -0.718,-0.955 -1.028,-1.467c-0.217,-0.361 -0.319,-0.62 -0.193,-1.203c-0.067,-0.006 -0.112,0.053 -0.136,0.065c-0.074,0.122 -0.168,0.32 -0.241,0.441c-0.107,-0.067 -0.1,-0.141 -0.127,-0.22c-0.105,-0.448 0.196,-0.62 0.305,-1.014a1.13,1.13 0 0 0 0.026,-0.124c-0.012,0 -0.018,-0.114 -0.111,0.108c-0.085,0.168 -0.1,0.232 -0.258,0.32c-0.021,-0.043 -0.03,-0.158 0.002,-0.208c0.084,-0.161 0.14,-0.313 0.151,-0.568c-0.017,-0.037 -0.054,-0.007 -0.064,0.022c-0.02,0.022 -0.035,0.065 -0.055,0.115c-0.037,0.086 -0.069,0.125 -0.105,0.211c-0.049,0.11 -0.099,0.125 -0.113,0.096m2.461,-3.361c-0.074,0.109 -0.147,0.22 -0.22,0.33l-0.257,-0.037c-0.31,-0.123 -0.557,-0.479 -0.459,-0.801c0.049,0.012 0.171,0.018 0.221,0.031c0.348,0.141 0.574,0.379 0.574,0.379c0.153,-0.031 0.171,0.031 0.141,0.098m0.954,0.476l0,-0.183l0.036,-0.073c0.208,-0.08 0.581,-0.141 0.808,-0.111c0.169,0.024 0.288,0.012 0.369,0.078l-0.007,0.014c-0.2,0.48 -1.041,0.654 -1.206,0.275m-2.831,-0.409c-0.254,-0.503 0.177,-1.15 -0.031,-1.809c0.34,0.126 0.677,0.464 0.709,0.5c0.011,-0.311 0.15,-0.764 0.275,-0.954a0.892,0.892 0 0 1 0.227,0.287l0.256,0.405c0.06,-0.127 0.094,-0.354 0.153,-0.481c0.1,-0.215 0.243,-0.424 0.343,-0.638c0.098,0.256 0.226,0.623 0.324,0.881c0.141,-0.049 0.039,-0.105 0.11,-0.215c0.061,-0.293 0.159,-0.428 0.232,-0.623c0.133,0.225 0.239,0.685 0.306,1.039l0.037,0l0.073,-0.037c0.098,-0.227 0.19,-0.368 0.287,-0.501c0.349,0.36 0.221,0.973 0.306,0.991c0.135,-0.007 0.3,-0.313 0.41,-0.41c0.195,0.214 0.084,0.717 0.202,0.832c0.043,0.036 0.092,-0.043 0.116,-0.069c0.247,-0.216 0.463,-0.367 0.789,-0.219c-0.067,0.635 -0.129,1.69 -0.459,1.835c-0.061,0.06 -0.245,-0.098 -0.33,-0.11c0.365,0.649 0.109,1.411 -0.624,1.43l-0.33,-0.184c-0.061,-0.023 -0.098,-0.011 -0.073,0.075c0.475,0.801 -0.276,1.653 -0.991,1.687l-0.073,-0.037l0.036,-0.22c0.618,-0.034 1.07,-0.768 0.807,-1.43l-0.036,0c-0.109,0.302 -0.194,0.45 -0.624,0.439c-0.133,-0.022 -0.261,-0.155 -0.33,-0.256c0.034,-0.514 0.383,-0.45 0.66,-0.697l0,-0.845c0.452,0.323 1.072,0.097 1.306,-0.245c0.032,-0.089 0.051,-0.158 0.061,-0.21c0.094,-0.181 0.369,-0.185 0.374,-0.505c-0.154,0.311 -0.581,0.215 -0.949,0.223c-0.331,0.008 -0.704,0.047 -0.738,-0.024c-0.025,-0.11 -0.045,-0.291 -0.069,-0.4c-0.026,0.019 -0.079,0.098 -0.079,0.139c-0.028,0.543 -0.037,1.043 -0.086,1.568c-0.259,-0.117 -0.549,-0.213 -0.92,-0.143l0,-0.035l0.513,-1.652c-0.006,-0.072 -0.043,-0.086 -0.073,-0.037c-0.062,0.169 -0.088,0.288 -0.22,0.33l-0.037,0c-0.234,-0.012 -0.377,-0.286 -0.575,-0.385c-0.201,-0.049 -0.342,-0.055 -0.55,-0.079c-0.098,-0.062 -0.184,-0.294 -0.27,-0.428c-0.045,-0.073 -0.09,-0.026 -0.03,0.275c0.091,0.23 0.318,0.355 0.318,0.355s0.008,0.334 0.117,0.52c0.188,0.32 0.548,0.332 0.843,0.55c-0.071,0.211 -0.25,0.516 -0.183,0.734c0.16,0.34 0.467,0.509 0.403,0.991c-0.142,0.068 -0.211,0.102 -0.439,0.109c-0.273,-0.097 -0.473,-0.186 -0.588,-0.44c-0.135,-0.221 -0.037,-0.519 0.074,-0.696l-0.074,-0.074c-0.147,0.025 -0.294,0.048 -0.441,0.074c-0.259,-0.055 -0.471,-0.321 -0.545,-0.69c-0.001,-0.007 -0.019,-0.02 -0.04,-0.033a0.527,0.527 0 0 0 0.058,-0.128c-0.02,-0.134 0.086,-0.184 0.082,-0.33m26.627,7.587s-0.051,-0.321 -0.203,-0.548c0.262,0.134 0.18,-0.606 0.089,-0.782c0.521,-0.18 -0.062,-1.174 -0.451,-1.473c0.114,-0.089 0.329,0.061 0.251,-0.079c-0.243,-0.307 -0.421,-0.642 -0.66,-0.8c-0.175,-0.114 -0.576,-0.046 -0.576,-0.046s-0.347,-0.302 -0.651,-0.27c-0.675,0.074 -1.76,0.513 -2.699,0.709c-1.323,0.279 -2.873,-0.557 -3.136,-1.099c1.235,0.148 3.18,0.584 4.456,0.146c0.589,-0.201 1.041,-0.727 1.615,-0.881c0.269,-0.012 0.538,-0.023 0.807,-0.037c1.119,-0.248 1.459,-0.921 1.761,-2.018c-0.034,-0.218 -0.083,-0.115 -0.11,-0.037c-0.456,1.25 -1.816,0.44 -2.942,1.059c-0.225,0.256 -0.164,-0.03 -0.183,-0.11c-0.493,-1.697 1.875,-0.961 1.401,-2.929c-0.013,0 -0.049,-0.032 -0.061,0.085c-0.167,0.85 -0.996,0.511 -1.664,0.856c-0.544,0.281 -0.544,0.686 -0.654,0.715c-0.337,-0.641 -0.244,-1.221 -0.006,-1.731c0.084,-0.194 -0.115,-0.14 -0.373,0.025c-0.368,0.251 -0.675,0.557 -0.612,1.198c-0.031,0 -0.126,-0.011 -0.263,-0.121c-0.469,-0.484 -0.462,-0.798 -0.55,-1.064l-0.11,0.074c-0.271,0.115 -0.514,0.464 -0.593,0.763c-0.39,-0.136 -0.424,-0.542 -0.948,-0.58l0,0.073c-0.076,0.127 -0.071,0.242 -0.037,0.404c0.03,0.079 -0.056,0.06 -0.147,0c-0.293,-0.133 -0.819,-0.371 -1.1,-0.257c0.012,0.22 -0.049,0.392 0.152,0.696c-0.623,-0.023 -1.058,-0.457 -1.657,-0.512c0,0.024 -0.036,0.079 -0.036,0.103c-0.037,0.183 -0.037,0.337 -0.074,0.521c-0.309,-0.008 -1.013,-0.396 -1.276,-0.569c1.828,0.24 2.929,-2.056 4.138,-1.56l0,-0.037c-0.248,-0.416 -0.662,-0.725 -1.395,-0.66c-0.518,0.046 -1.006,0.467 -1.503,0.624c-0.998,0.313 -1.918,-0.282 -2.973,-0.074c-0.288,0.057 -0.419,0.221 -0.734,0.184c0.044,-0.371 -0.09,-0.89 -0.33,-1.102c-0.024,0.013 -0.048,0.026 -0.073,0.037c-0.461,1.054 -3.123,1.094 -4.959,1.67c-1.074,0.336 -2.115,1.184 -1.609,2.513c0.529,1.387 2.792,1.573 4.623,1.211c2.767,-0.546 5.763,-0.802 8.513,-1.505c1.37,-0.349 2.965,-0.084 3.596,0.662c0.003,1.341 -2.221,1.201 -3.376,0.916c-1.426,-0.351 -4.241,-0.8 -5.797,-0.366c-2.144,0.599 -6.272,1.097 -8.696,0.441c-0.085,-0.311 -0.183,-0.684 -0.11,-1.028c0.441,-0.181 0.727,-1.648 0.55,-2.165c-0.369,-0.089 -0.536,0.017 -0.88,0.073l-0.367,-0.66l-0.037,0c-0.055,0.16 -0.05,0.168 -0.22,0.22c-0.063,-0.346 -0.225,-0.714 -0.44,-0.917c-0.025,0.012 -0.049,0.023 -0.074,0.037l-0.109,0.256l-0.147,0c-0.04,-0.139 -0.17,-0.649 -0.221,-0.697l-0.11,-0.036l-0.403,0.477c-0.133,-0.157 -0.155,-0.318 -0.367,-0.404l-0.514,0.697l-0.147,-0.037l-0.293,-0.44l-0.073,0.037l-0.294,0.733c-0.273,-0.045 -0.479,-0.18 -0.77,-0.109c0.041,0.82 -0.024,1.505 -0.074,2.275c-0.617,0.238 -0.751,0.68 -0.693,1.33c0.005,0.057 0.266,-0.152 0.268,-0.025c0.002,0.136 -0.253,0.609 -0.243,0.674c0,0.459 0.14,0.417 0.179,0.613c0.028,0.137 -0.017,0.242 0.013,0.344c0.083,0.283 0.166,0.398 0.183,0.66c-0.776,-0.065 -2.562,-1.847 -2.385,-2.789c0.118,-0.634 0.541,-1.149 0.697,-1.688c0.267,-0.928 -0.408,-1.796 -1.101,-1.724c0.072,0.322 0.258,0.431 0.183,0.843l-0.036,0l-0.074,-0.037c-0.194,-0.582 -0.568,-1.122 -1.394,-1.1c0.215,0.284 0.396,0.481 0.403,0.991c-0.195,0.228 -0.325,0.45 -0.33,0.881c-0.017,0.156 -0.063,0.076 -0.109,0.051c-0.354,-0.288 -0.615,-0.495 -1.235,-0.356c-0.247,0.091 -0.506,0.393 -0.307,0.34c0.401,0.045 0.538,0.168 0.734,0.404c-0.078,0.281 0.023,0.567 0.15,0.744c0.101,0.144 0.243,0.202 0.144,0.246c-0.2,0.151 -0.317,0.363 -0.367,0.661l-0.734,0l0,0.037c0.257,0.618 0.662,0.781 1.114,0.788c0.218,0.003 0.514,0.136 0.677,-0.068c0.088,-0.021 0.119,0.229 0.146,0.278c-0.407,0.019 -0.833,0.311 -0.909,0.653c0.305,0.11 0.56,0.213 0.865,0.323c0.139,0.008 0.154,0.067 0.052,0.117l-0.441,0.33l0.073,0.111c0.318,0.102 0.535,0.248 0.918,0.329c0,0.05 0.015,0.062 -0.051,0.133c-0.122,0.086 -0.194,0.185 -0.316,0.271c0.216,0.245 0.557,0.26 0.954,0.33c0.029,-0.004 0.044,0.086 0,0.184c-0.122,0.088 -0.22,0.271 -0.257,0.44c0.432,0.01 0.805,0.042 1.174,-0.036c0,0.049 0.044,0.098 0,0.197c-0.082,0.165 -0.155,0.223 -0.257,0.353l0.037,0.073c0.384,0.015 0.735,0.023 1.065,-0.037c0,0.135 0.043,0.285 0,0.404c-0.098,0.221 -0.191,0.47 -0.191,0.47s0.508,0.126 1.196,-0.476c0.121,0.105 0.33,0.196 0.535,0.227c-0.048,0.141 0,0.076 -0.11,0.147c-0.279,0.162 -0.967,0.199 -1.284,0.183c-0.44,-0.024 -0.859,-0.008 -1.3,-0.031c-0.54,-0.166 -0.903,-1.722 -2.212,-1.762c-0.192,0.008 -0.654,0.178 -0.707,0.655c0.024,0.013 0.053,0.035 0.109,-0.005c0.241,-0.116 0.345,-0.064 0.551,0.042l0.073,0.441c-0.854,-0.074 -1.56,-0.101 -1.651,0.77c0.393,-0.207 0.65,-0.266 0.86,-0.185c0.05,0.287 0.213,0.402 0.388,0.626c0.026,0.037 0.047,0.061 0.047,0.109c-0.65,0.205 -0.689,1.008 -0.414,1.358c0.037,0.051 0.12,-0.067 0.136,-0.153c0.107,-0.507 0.315,-0.392 0.43,-0.566c0.285,0.239 0.5,0.38 0.939,0.242c0.27,-0.086 0.424,-0.265 0.623,-0.299c0.025,0.067 0.028,0.321 0.232,0.504c0.052,0.349 -0.115,0.727 -0.054,0.686c0.214,-0.145 0.613,-0.299 0.78,-0.532c0.335,-0.04 0.553,-0.424 0.494,-0.779l0.356,0c0.012,0.037 -0.094,0.076 -0.157,0.196c-0.11,0.268 -0.22,0.468 -0.33,0.738l0.036,0.037c0.512,0.004 0.772,-0.162 1.182,-0.438c-0.034,0.19 -0.228,0.409 -0.337,0.51c-0.076,0.099 -0.007,0.102 0.29,0.102c0.627,-0.008 0.817,-0.194 1.067,-0.469l0.11,0l0,0.074l-0.037,0.514c0.503,-0.102 0.952,-0.219 1.153,-0.751c0.213,0.323 0.08,0.542 0.205,0.642a0.595,0.595 0 0 1 0.036,0.035c0.388,-0.119 0.631,-0.367 0.844,-0.66c0.037,0.025 0.074,0.048 0.111,0.074l0.073,0.439c0.198,-0.037 0.807,-0.241 1.028,-0.813c0.484,-0.12 1.03,-0.652 1.151,-0.821c0.19,-0.427 -0.217,-0.788 -0.36,-1.288c0.306,0.049 0.776,0.159 1.064,0.182c0.634,0 1.177,-0.074 1.859,-0.286c0,0.012 0.364,-0.135 0.468,-0.165c1.327,-0.518 1.833,-0.914 2.605,-1.285l1.357,-0.513c0.025,0 0.071,-0.044 0.089,0.007c-0.143,0.637 -0.509,0.918 0.095,1.754c0.161,0.222 0.527,0.42 0.521,0.551c-0.655,0.502 -2.367,0.621 -3.126,0.491c-0.293,-0.269 -0.523,-0.498 -0.817,-0.767c-0.126,-0.049 -0.242,0.006 -0.286,-0.048c-0.242,-0.219 -0.869,0.065 -0.939,0.115c-0.12,0.059 -0.166,0.173 -0.233,0.281c0.22,0.033 0.612,0.064 0.718,0.221c0.026,0.079 -0.015,0.14 -0.094,0.144c-0.285,0.015 -0.634,0.023 -0.859,0.175c-0.498,0.336 -0.734,0.879 -0.535,1.075c0.232,-0.221 0.318,-0.34 0.807,-0.33c0.102,0.201 0.317,0.195 0.477,0.33c-0.651,0.695 -0.405,1.145 -0.17,1.515c0.012,0.018 0.063,0.039 0.096,-0.011c0.14,-0.187 0.195,-0.51 0.404,-0.623c0.461,-0.25 0.562,0.077 1.174,-0.477c0.055,-0.084 0.103,-0.154 0.147,0c0.066,0.479 0.315,0.301 0.221,1.174c-0.015,0.054 -0.043,0.09 0.078,0.034c0.121,-0.055 0.398,-0.131 0.398,-0.145c0.302,-0.111 0.68,-0.594 0.697,-0.99c0.005,-0.253 0.081,-0.132 0.147,0c0.144,0.219 0.279,0.384 0.477,0.55l0.257,-0.22c0.241,-0.25 0.413,-0.416 0.513,-0.844c0.047,-0.076 -0.009,-0.188 0.184,0.037c0.178,0.209 0.278,0.508 0.33,0.844c0.022,0.122 0.073,0.061 0.22,0c0.264,-0.211 0.576,-0.47 0.734,-0.844c0.025,0 0.034,-0.154 0.073,0c0.049,0.195 0.018,0.381 0.066,0.576c0.535,-0.119 0.831,-0.519 1.014,-0.847c0.056,-0.125 0.127,-0.118 0.205,-0.059c0.088,0.157 0.32,0.305 0.454,0.439c0.025,0.088 0.057,0.112 0.111,0.038c0.095,-0.19 0.567,-0.723 0.541,-1.154c0.404,-0.268 0.347,-0.661 0.252,-0.864c-0.262,-0.555 -1.378,-0.904 -1.358,-1.578c-0.061,-0.44 0.29,0.318 0.477,0.476c0.419,0.358 1.231,0.73 1.797,0.881c1.499,0.401 5.282,-0.777 6.648,-0.135c0.363,0.17 0.487,0.538 0.434,1.016l-0.11,0.257c-0.635,0.461 -0.914,-0.148 -1.809,-0.166c-0.509,-0.14 -0.694,0.411 -0.833,0.827c-0.034,0.231 0.052,0.258 0.111,0.22c0.134,-0.111 0.293,-0.358 0.51,-0.363c0.048,0.144 0.194,0.285 0.375,0.37a1.039,1.039 0 0 0 -0.042,1.168c0.074,0.045 0.107,-0.008 0.111,-0.075c0.119,-0.517 0.573,-0.597 0.573,-0.597s0.158,0.246 0.38,0.267c0.266,0.026 0.364,-0.179 0.587,-0.146c0.068,0.48 0.341,0.722 0.695,0.924c0.138,0.084 0.275,-0.006 0.333,0.027c-0.054,-0.225 -0.18,-0.434 -0.074,-0.695c0.073,-0.224 0.152,-0.089 0.293,-0.22l0.294,-0.771c0.456,0.188 0.714,0.137 0.844,0.661c0.061,-0.049 0.246,-0.288 0.295,-0.547c0.126,-0.492 -0.091,-0.678 -0.091,-0.678" fill="#3E1F0C" clip-path="url(#b)"/>
  <path id="svg_38" d="m13.80604,9.7043s0.66,-0.046 0.751,-0.807c0.092,-0.761 -0.054,-1.037 0.046,-1.203c0.055,-0.089 -0.017,-0.154 -0.088,-0.22c-0.06,-0.056 -0.11,-0.119 -0.168,-0.127c-0.065,-0.01 -0.195,0.058 -0.328,0.095c-0.128,0.035 -0.26,0.038 -0.296,0.079c-0.073,0.081 -0.165,0.496 -0.129,0.788c0.037,0.294 0.202,0.835 0.212,1.055c0.008,0.221 -0.092,0.34 0,0.34" fill="#3E1F0C" clip-path="url(#b)"/>
  <path id="svg_39" d="m21.88504,14.2983s0.181,0.484 0.126,0.578c-0.055,0.094 0.363,-0.133 0.413,-0.478c-0.16,-0.243 -0.539,-0.1 -0.539,-0.1m-2.139,0.424s0.16,-0.336 0.401,-0.435c0.242,-0.098 -0.258,-0.071 -0.302,-0.483c0.006,-0.177 -0.32,0.428 -0.099,0.918m0.715,-3.155s-0.375,-0.154 -0.858,0.162c0.41,0.104 0.587,0.293 0.587,0.293s0.168,-0.418 0.271,-0.455m-1.167,0.985s-0.513,0.213 -0.572,0.668c0.286,-0.242 0.389,-0.272 0.543,-0.221c-0.103,-0.234 0.029,-0.447 0.029,-0.447m-10.122,2s0.362,-0.1 0.494,-0.41c-0.173,-0.32 -0.541,-0.241 -0.541,-0.241s0.169,0.288 0.047,0.651m-1.999,-1.45s-0.545,0.289 -0.43,0.924c0.183,-0.362 0.498,-0.498 0.498,-0.498s-0.131,-0.241 -0.068,-0.426m-1.133,-0.944s0.436,-0.226 0.708,-0.042c0.032,-0.294 0.132,-0.395 0.132,-0.395s-0.689,0.006 -0.84,0.437m0.965,-1.196s0.367,-0.095 0.546,0.1c0.026,-0.205 0.209,-0.348 0.209,-0.348s-0.477,-0.199 -0.755,0.248m0.228,-6.541s-0.469,-0.294 -0.92,-0.014c0.275,0.051 0.574,0.346 0.574,0.346s0.014,-0.262 0.346,-0.332m0.982,-0.963s0.285,-0.123 0.422,0.009c-0.071,-0.394 -0.256,-0.688 -0.697,-0.764c0.291,0.36 0.275,0.755 0.275,0.755m1.111,0.327s0.417,0.005 0.517,0.099c-0.024,-0.284 -0.156,-0.664 -0.631,-0.839c0.208,0.299 0.171,0.636 0.114,0.74m24.536,9.523s0.233,-0.299 0.457,-0.394c0.008,-0.287 0.091,-0.398 0.091,-0.398s-0.44,0.042 -0.548,0.792m0.879,0.992s0.208,-0.443 0.544,-0.456c-0.116,-0.269 -0.236,-0.469 -0.282,-0.448c-0.046,0.021 -0.439,0.415 -0.262,0.904m2.48,0.578s-0.327,-0.308 -0.085,-0.727c-0.223,-0.236 -0.544,-0.117 -0.563,-0.052c-0.02,0.065 0.196,0.615 0.648,0.779m1.238,-1.611s0.295,0.209 0.341,0.412c0.163,-0.438 0.052,-1.002 -0.059,-0.962c-0.113,0.039 -0.355,0.241 -0.282,0.55m-31.578,-6.686s-0.329,0.246 -0.595,0.164c0.472,0.451 0.831,0.472 0.831,0.472s0.093,-0.359 -0.236,-0.636m7.025,1.041s-0.229,0.119 -0.174,0.614c0.055,0.495 0.257,0.991 0.266,1.183c0.009,0.193 0.211,-0.11 0.339,-0.365c0.129,-0.258 -0.046,-1.194 0.074,-1.386c0.119,-0.192 -0.083,-0.294 -0.184,-0.093c-0.1,0.203 -0.137,0.442 -0.1,0.891c0.036,0.449 -0.12,0.183 -0.157,-0.166c-0.036,-0.348 0.074,-0.504 0.101,-0.632c0.028,-0.129 -0.101,-0.093 -0.165,-0.046" fill="#009CD5" clip-path="url(#b)"/>
  <path id="svg_40" d="m27.33904,11.4993s0.3,-0.032 0.338,0.221c0.037,0.255 -0.023,0.24 -0.169,0.31c-0.146,0.071 -0.155,0.198 0.061,0.156s0.319,-0.104 0.31,-0.33c-0.009,-0.224 -0.014,-0.455 -0.319,-0.502c-0.306,-0.046 -0.329,0.145 -0.221,0.145m-14.2,-3.943s0.311,0.322 0.467,0.291c0.155,-0.032 -0.011,0.424 -0.011,0.424s-0.404,-0.217 -0.456,-0.715m1.588,0.736s0.373,0.031 0.561,-0.342c0.186,-0.374 -0.281,0.238 -0.457,0.031c-0.178,-0.208 -0.104,0.26 -0.104,0.311" fill="#976A3D" clip-path="url(#b)"/>
  <path id="svg_41" d="m11.59004,34.2023l0.003,-15.182l1.982,-1.687l-0.045,14.835l-1.94,2.034z" fill="#FFD530" clip-path="url(#b)"/>
  <path id="svg_42" d="m11.59004,34.2023l0.003,-15.182l1.982,-1.687l-0.045,14.835l-1.94,2.034z" stroke-linejoin="round" stroke-width="0.306" stroke="#785342" fill="none" clip-path="url(#b)"/>
  <path id="svg_43" d="m31.72304,31.7613l0.055,-14.62l1.899,1.432l0.019,15.559l-22.106,0.07l1.94,-2.034s0.819,0.556 2.09,0.458c1.987,-0.152 4.28,-2.191 6.93,-0.152c1.274,-0.815 2.65,-1.273 3.873,-0.917c1.223,0.356 2.548,0.968 3.567,0.866s1.733,-0.662 1.733,-0.662" fill="#E39725" clip-path="url(#b)"/>
  <path id="svg_44" d="m31.72304,31.7613l0.055,-14.62l1.899,1.432l0.019,15.559l-22.106,0.07l1.94,-2.034s0.819,0.556 2.09,0.458c1.987,-0.152 4.28,-2.191 6.93,-0.152c1.274,-0.815 2.65,-1.273 3.873,-0.917c1.223,0.356 2.548,0.968 3.567,0.866s1.733,-0.662 1.733,-0.662z" stroke-linejoin="round" stroke-width="0.306" stroke="#785342" fill="none" clip-path="url(#b)"/>
  <path id="svg_45" d="m32.66504,17.7513l-0.974,-0.662s-0.584,0.507 -1.558,0.468c-0.974,-0.039 -2.961,-1.214 -4.441,-1.286c-2.034,-0.098 -3.003,1.236 -3.06,1.504c0,0 -0.617,-1.125 -2.277,-1.192c-1.024,-0.042 -3.078,0.818 -4.13,1.013c-1.052,0.195 -2.455,-0.468 -2.455,-0.468l-0.896,0.74l-1.958,0l0,17.052l9.361,0s-0.304,1.897 2.381,2.097c0.274,0.02 2.361,0.046 2.257,-2.088l9.655,0l0,-17.157l-1.905,-0.021z" stroke-width="0.306" stroke="#3E1F0C" fill="none" clip-path="url(#b)"/>
  <path id="svg_46" d="m31.72304,31.7613l1.973,2.371" fill="#E39725" clip-path="url(#b)"/>
  <path id="svg_47" d="m31.72304,31.7613l1.973,2.371" stroke-width="0.306" stroke="#785342" fill="none" clip-path="url(#b)"/>
  <path id="svg_48" d="m22.69404,32.3543s-1.536,1.359 -1.595,1.58c-0.059,0.222 0.221,0.354 0.221,0.354s-1.078,1.284 0.754,2.022c1.831,0.739 2.692,-1.375 1.89,-2.51c-1.034,-1.459 -1.27,-1.446 -1.27,-1.446" fill="#603926" clip-path="url(#b)"/>
  <path id="svg_49" d="m23.57004,34.1813c-0.007,0.014 0.131,0.201 0.131,0.201c0.057,0.102 0.166,0.461 0.166,0.595c0,0.548 -0.467,0.952 -1.092,0.952s-1.093,-0.465 -1.093,-1.013c0,-0.198 0.095,-0.62 0.22,-0.68c0,0 -0.287,-0.754 0.707,-0.882c0.584,-0.074 1.081,0.602 0.961,0.827" fill="#835221" clip-path="url(#b)"/>
  <path id="svg_50" d="m14.13504,6.3653c0.37,-0.013 0.548,0.001 0.709,0.159c0.054,0.077 0.043,0.16 -0.048,0.208c-0.203,-0.022 -0.249,0.148 -0.404,0.241c-0.041,-0.005 -0.069,-0.082 -0.101,-0.132c-0.073,-0.134 -0.156,-0.231 -0.229,-0.366c-0.029,-0.101 -0.04,-0.105 0.073,-0.11" fill="#FFD400" clip-path="url(#b)"/>
  <path id="svg_51" d="m14.11004,6.4073s0.203,0.191 0.255,0.32c0.052,0.127 0.052,-0.197 0.162,-0.123c0.11,0.076 0.4,0.186 0.325,-0.051c-0.075,-0.238 -0.742,-0.208 -0.742,-0.146" fill="#FFE380" clip-path="url(#b)"/>
  <path id="svg_52" d="m13.23604,19.2223l-0.063,-0.264s-0.019,-0.327 -0.063,-0.418c-0.183,-0.054 -0.682,0.509 -0.754,0.618c-0.073,0.109 -0.063,0.118 -0.063,0.118l-0.064,0.418l-0.036,0.898l-0.019,0.826l0.019,0.572l-0.055,0.482l0.009,0.398l0.009,0.309l0.037,1.416l0,0.536l-0.037,0.371l-0.036,0.917l-0.018,0.6l0.009,0.445l0,1.805l-0.009,1.235l-0.037,0.48l-0.018,0.507l0,0.555l-0.082,0.617l-0.09,0.6l-0.064,0.062l-0.054,-0.008l-0.009,-0.49l0.009,-0.689l0,-1.28l0.009,-1.063l-0.028,-1.225l0.01,-1.018l0.009,-1.115l-0.009,-1.028l0.018,-0.934l0.018,-1.343l0.027,-2.396s0.091,-1.643 0.109,-1.716c0.019,-0.072 0.572,-0.563 0.572,-0.563s0.817,-0.644 0.853,-0.635c0.037,0.009 0.064,1.534 -0.009,1.534c-0.073,0.001 -0.1,-0.134 -0.1,-0.134" fill="#FFE38C" clip-path="url(#b)"/>
  <path id="svg_53" d="m17.51904,22.5603a5.064,5.064 0 0 1 -0.607,-0.518l0,-0.455s0.395,0 0.597,-0.051c0.203,-0.05 0.334,-0.213 0.071,-0.213s-0.658,-0.009 -0.658,-0.009l0,-0.782c0,-0.25 -0.101,-0.301 -0.192,-0.301s-0.223,0.051 -0.223,0.375l0,0.708l-0.982,0l-0.355,0.638c-0.05,0.09 0.193,-0.061 0.365,-0.133c0.172,-0.07 0.84,-0.191 0.972,-0.191c0,0 0.054,0.472 -0.304,0.77c-0.354,0.293 -0.587,0.596 -1.63,0.849c-0.103,0.026 0.061,0.243 0.415,0.294c0.354,0.05 0.803,-0.151 1.387,-0.931c0.122,-0.162 0.152,-0.091 0.152,0.081c0,0.171 0.051,1.154 -0.041,1.367c-0.091,0.213 0.061,0.293 0.183,0.07s0.192,-0.678 0.192,-1.721c0,-0.111 0.233,0.162 0.517,0.274c0.283,0.111 0.383,0.051 0.141,-0.121m2.01,0.051c0.217,-0.261 0.364,-0.516 0.364,-0.516s1.244,0.008 1.351,-0.037c0.089,-0.08 0.217,-0.424 0.172,-0.469c-0.044,-0.043 -0.241,0.201 -0.356,0.201l-0.995,0s0.498,-0.956 0.569,-1.08c0.089,-0.026 0.142,-0.08 0.134,-0.169c-0.009,-0.089 -0.32,-0.258 -0.383,-0.214c-0.062,0.045 -0.284,0.16 -0.284,0.16l-0.799,0c0.026,-0.124 -0.178,-0.355 -0.24,-0.355c-0.063,0 -0.036,0.027 -0.152,0.365c-0.115,0.337 -0.639,0.764 -0.639,0.764s-0.045,0.069 0.071,0.071c0.409,0.009 0.818,-0.533 0.818,-0.533l0.843,0c0.107,0 0.151,0.035 0.107,0.143c-0.045,0.106 -0.482,0.862 -0.482,0.862c-0.228,0.008 -0.917,0.004 -1.144,-0.01c-0.213,-0.013 -0.267,-0.089 -0.329,0.053s-0.115,0.338 -0.115,0.338c0.08,0.125 0.355,-0.08 0.471,-0.08l0.735,0.006c0.159,0 0.176,0.009 0.176,0.009c-0.148,0.246 -0.777,1.107 -1.6,1.5c-0.391,0.187 -0.865,-0.146 -0.865,-0.058c-0.028,0.234 0.294,0.441 0.738,0.513c0.382,0.063 0.931,-0.476 1.144,-0.699c0.214,-0.223 0.273,-0.112 0.302,-0.01c0.222,0.784 0.294,0.943 0.436,0.943l0.951,0c0.124,0 0.186,-0.124 0.302,-0.685c0.115,-0.558 0.195,-0.808 0.053,-0.88c-0.142,-0.071 -1.226,-0.038 -1.226,-0.038c-0.142,0 -0.184,-0.031 -0.128,-0.095m0.057,0.437c0.054,-0.062 0.639,-0.027 0.729,-0.018c0.088,0.008 0.204,0.08 0.16,0.311c-0.045,0.23 -0.107,0.515 -0.179,0.551c-0.071,0.035 -0.479,0.044 -0.533,0.017c-0.052,-0.027 -0.372,-0.639 -0.177,-0.861m-3.928,3.644s-0.108,0.314 -0.173,0.553c-0.065,0.238 -0.293,0.574 -0.39,0.727c-0.098,0.151 -0.011,0.324 0.206,0.194c0.216,-0.13 0.52,-0.509 0.52,-0.662c0.162,0 0.714,-0.042 0.714,-0.042l-0.021,0.727s-0.606,0.541 -1.344,0.715c-0.189,0.044 -0.335,0.205 -0.054,0.379c0.13,0.055 0.553,0.021 1.051,-0.391c0,0 0.239,-0.184 0.282,-0.184s0.011,0.639 0.011,0.823s0.195,0.14 0.26,-0.151c0.064,-0.293 0.162,-1.008 0.162,-1.008s0.596,-0.52 0.444,-0.704c-0.064,-0.054 -0.368,0.26 -0.368,0.26s0.032,-0.433 0.032,-0.53c0.185,-0.033 0.676,-0.098 0.683,-0.217c0.01,-0.195 -0.715,-0.131 -0.715,-0.131s0.032,-0.486 0.022,-0.715c-0.006,-0.114 -0.216,-0.211 -0.282,-0.205c0,0 -0.195,0.033 -0.195,0.195l0,0.736l-0.607,0s0.033,-0.119 0.022,-0.228c-0.01,-0.108 -0.184,-0.26 -0.26,-0.141m2.619,-0.4s0.043,0.803 -0.683,1.475c-0.064,0.06 -0.084,0.247 0.217,0.087c0.331,-0.177 0.52,-0.499 0.52,-0.499l0.466,0c0.055,0 -0.375,1.609 -1.55,1.844c0,0 -0.152,0.064 0.054,0.151s0.841,-0.126 1.178,-0.538c0.336,-0.411 0.643,-1.099 0.752,-1.468c0.293,-0.021 0.612,-0.021 0.612,-0.021s-0.493,1.625 -1.577,2.362c-0.068,0.045 0.086,0.098 0.433,-0.021c0.347,-0.12 0.976,-0.704 1.551,-2.385c0,0 0.564,-0.098 0.629,-0.065c0.065,0.033 0.01,0.174 -0.065,0.401c-0.076,0.228 -0.543,1.354 -0.835,1.562c-0.126,0.088 -0.531,-0.131 -0.531,-0.076c0,0.054 0.292,0.421 0.498,0.421s0.466,-0.194 0.727,-0.735c0.26,-0.542 0.639,-1.398 0.683,-1.67c0.043,-0.271 -0.184,-0.422 -0.477,-0.336c-0.293,0.087 -1.161,0.228 -2.266,0.206c-0.109,-0.002 -0.033,-0.195 0,-0.368c0.033,-0.174 0.043,-0.521 -0.185,-0.521c-0.227,-0.001 -0.151,0.194 -0.151,0.194m8.371,-5.971c-0.142,-0.017 -1.336,0.165 -1.729,0.2c-0.393,0.037 -0.776,-0.111 -0.838,0.094c-0.063,0.206 0.16,0.357 0.356,0.384c0,0 0.223,0.624 0.009,2.541c-0.015,0.131 -0.036,0.281 0.071,0.276c0.188,-0.008 0.312,-0.276 0.535,-0.285c0.223,-0.009 1.355,-0.098 1.489,-0.098s0.107,0.044 0.125,-0.508c0.018,-0.553 -0.009,-1.828 0.063,-2.185c0.07,-0.356 0.062,-0.401 -0.081,-0.419m-1.748,1.445s0.775,-0.17 1.373,-0.162c0.054,0.002 0.08,0.108 0.071,0.323c-0.009,0.214 0.027,0.293 -0.142,0.311c-0.17,0.018 -1.133,0.124 -1.24,0.143c-0.107,0.017 -0.089,-0.098 -0.08,-0.312c0.01,-0.215 -0.008,-0.24 0.018,-0.303m1.445,0.954c-0.009,0.142 0.027,0.375 -0.098,0.375s-1.105,0.052 -1.284,0.105c-0.178,0.055 -0.008,-0.061 -0.035,-0.508c0,0 0.526,-0.106 1.034,-0.124c0.508,-0.018 0.392,0.009 0.383,0.152m0.009,-1.641c0,0.133 -0.009,0.187 -0.125,0.187s-1.034,0.108 -1.114,0.134c-0.081,0.027 -0.232,0.053 -0.232,-0.062a2.56,2.56 0 0 0 -0.063,-0.384c0.072,-0.027 0.072,-0.115 0.214,-0.133c0.143,-0.018 0.892,-0.116 1.142,-0.116c0.248,0 0.178,0.098 0.178,0.374" clip-path="url(#b)"/>
  <path id="svg_54" d="m30.06504,24.2293c-0.051,-0.204 -0.255,-1.173 -0.255,-1.605c0,-0.434 0.077,-2.065 0.191,-2.358c0.115,-0.293 0.128,-0.369 -0.216,-0.369s-2.127,0.255 -2.319,0.255c-0.191,0 -0.252,0.234 -0.119,0.314c0,0 -0.016,0.125 0.094,0.158c0.076,0.076 0.765,1.605 -0.141,2.7c-0.098,0.12 -0.675,0.815 -1.592,0.701c-0.117,-0.014 -0.268,-0.026 -0.14,0.191c0.128,0.216 0.599,0.459 1.274,0.166c0.675,-0.293 1.274,-1.414 1.299,-1.631c0.179,0 1.3,-0.013 1.3,-0.013s-0.077,1.21 0.408,1.618c0.111,0.094 0.268,0.076 0.216,-0.127m-0.636,-1.873c-0.216,0.012 -1.21,0.012 -1.21,0.012s0.025,-0.561 0.013,-0.802c0,0 1.121,-0.077 1.21,-0.139c0.089,-0.065 -0.013,0.738 -0.013,0.929m0.153,-1.822c-0.038,0.255 0,0.484 -0.128,0.522c-0.126,0.039 -1.108,0.165 -1.324,0.165a2.292,2.292 0 0 0 -0.151,-0.484c-0.081,-0.173 -0.162,-0.279 -0.105,-0.279c0,0 0.791,-0.038 1.198,-0.064c0.408,-0.025 0.548,-0.115 0.51,0.14m-4.915,5.745s0.315,0.095 0.738,-0.042c0.46,-0.15 0.492,-0.022 0.471,0.127c-0.022,0.15 -0.481,0.258 -0.685,0.258c-0.642,0 -0.749,-0.343 -0.524,-0.343m-0.374,1.134s0.481,0.011 0.92,-0.074c0.438,-0.086 0.931,-0.268 0.888,-0.021s-0.524,1.883 -1.455,2.086c-0.127,0.027 -0.856,0.149 -0.984,-0.546c-0.031,-0.169 0.107,-0.011 0.289,0.063c0.182,0.076 0.642,0.15 1.037,-0.287c0.397,-0.439 0.599,-0.696 0.675,-1.018c0.01,-0.074 -0.008,-0.101 -0.663,0.011c-0.504,0.086 -0.782,0.481 -1.006,0.054c-0.076,-0.278 0.299,-0.268 0.299,-0.268m2.728,-1.455s2.707,-0.053 2.921,-0.053c0.214,0 -0.054,0.234 -0.193,0.256c-0.139,0.022 -2.193,0.076 -2.46,0.086c-0.268,0.012 -0.321,0.214 -0.45,0.117c-0.129,-0.095 0.129,-0.385 0.182,-0.406" clip-path="url(#b)"/>
  <path id="svg_55" d="m28.25104,25.4983s0.139,-0.106 0.268,-0.053c0.128,0.053 0.01,0.236 -0.043,0.417c-0.054,0.182 -0.086,0.727 -0.086,0.727l-0.118,0.14s-0.198,-0.021 -0.203,-0.159c-0.01,-0.311 0.043,-1.018 0.182,-1.072" clip-path="url(#b)"/>
  <path id="svg_56" d="m29.84504,26.8143c-0.01,-0.118 -0.374,-0.226 -1.263,-0.235c-0.887,-0.01 -2.011,0.331 -2.011,0.331c-0.117,0.14 0.022,0.407 0.096,0.664c0.06,0.205 0.196,0.466 0.31,0.481c0.284,0.037 1.285,-0.043 1.841,-0.086s0.696,-0.075 0.813,-0.214c0.118,-0.139 0.225,-0.823 0.214,-0.941m-2.161,0.878c-0.043,0.139 -0.385,0.096 -0.546,0.074c-0.067,-0.01 -0.278,-0.621 -0.171,-0.664c0,0 0.589,-0.182 0.642,-0.074c0.054,0.108 0.118,0.525 0.075,0.664m0.866,0c-0.074,0.042 -0.417,0.063 -0.513,0.063c-0.096,0 -0.096,-0.032 -0.096,-0.182s-0.054,-0.62 0.085,-0.664c0,0 0.492,-0.042 0.546,-0.031c0.053,0.011 0.021,0.245 0.021,0.448s0.032,0.322 -0.043,0.366m0.738,-0.099c-0.106,0.033 -0.454,0.089 -0.454,0.047c0,-0.043 0.026,-0.747 0.026,-0.747s0.263,-0.007 0.403,-0.007c0.139,0 0.162,-0.005 0.162,0.091s-0.03,0.584 -0.137,0.616m-3.414,1.576s0.836,-0.633 0.954,-0.729c0.117,-0.097 0.289,0.043 0.396,0.086s1.509,0.77 2.214,0.727c0.478,-0.028 0.934,-0.399 0.931,-0.396c0,0 0.065,0.14 -0.032,0.3c-0.096,0.16 -0.516,0.631 -1.182,0.531c-0.465,-0.069 -1.76,-0.799 -2.081,-0.959c-0.082,-0.041 -0.129,-0.043 -0.214,0.032c-0.086,0.075 -0.577,0.503 -0.695,0.599s-0.15,0.064 -0.247,0c-0.096,-0.064 -0.12,-0.134 -0.044,-0.191" clip-path="url(#b)"/>
  <path id="svg_58" d="m270.50291,66.35592c0,-2.46 1.801,-4.151 4.225,-4.151s4.225,1.691 4.225,4.151s-1.801,4.152 -4.225,4.152s-4.225,-1.692 -4.225,-4.152m6.337,0c0,-1.403 -0.265,-3.696 -2.112,-3.696s-2.111,2.293 -2.111,3.696c0,1.404 0.264,3.696 2.111,3.696s2.112,-2.292 2.112,-3.696m9.552,0.899l0.023,0l0,-3.672c0,-0.66 -0.323,-0.983 -1.127,-0.983l0,-0.216l2.699,0l0,0.216c-0.804,0 -1.127,0.323 -1.127,0.983l0,6.925l-0.193,0l-5.351,-6.589l-0.023,0l0,5.209c0,0.66 0.324,0.984 1.127,0.984l0,0.215l-2.699,0l0,-0.215c0.804,0 1.128,-0.324 1.128,-0.984l0,-5.797c-0.384,-0.492 -0.576,-0.731 -1.151,-0.731l0,-0.216l2.807,0l3.887,4.871zm10.164,-2.255l-0.217,0c-0.443,-1.308 -1.512,-2.34 -2.939,-2.34c-2.04,0 -2.544,2.064 -2.544,3.721c0,1.728 0.396,3.672 2.532,3.672c0.443,0 0.84,-0.073 1.296,-0.241l0,-1.319c0,-0.972 0,-1.283 -1.128,-1.283l0,-0.217l3.924,0l0,0.217c-0.948,0 -0.948,0.312 -0.948,1.283l0,1.356c-1.008,0.612 -2.64,0.66 -3.384,0.66c-2.568,0 -4.403,-1.716 -4.403,-4.044c0,-2.485 1.955,-4.26 4.392,-4.26c0.875,0 1.392,0.144 1.764,0.287c0.372,0.145 0.6,0.289 0.852,0.289c0.324,0 0.48,-0.324 0.588,-0.576l0.217,0l0,2.795l-0.002,0z" clip-path="url(#b)"/>
 </g>
</svg>