<svg xmlns="http://www.w3.org/2000/svg" xmlns:xlink="http://www.w3.org/1999/xlink" fill="none" version="1.1" width="98.342041015625" height="37" viewBox="0 0 98.342041015625 37"><path d="M1.6872222,32.92102465406836L2.8943396,32.92102465406836L1.2048323,36.97267012006836L0,36.97267012006836L1.6872222,32.92102465406836ZM2.2747793,35.59478832006836L2.0278685,35.59478832006836L2.4050913,34.68379472006836L2.6085637,34.68379472006836C2.7055397,34.68525432006836,2.8025124,34.68069492006836,2.8989129,34.67013042006836C2.9600101,34.66263792006836,3.0190387,34.64329512006836,3.0726635,34.61319332006836C3.1205184,34.58096472006836,3.1610265,34.53906102006836,3.1915472,34.49020732006836C3.236573,34.41248872006836,3.2762892,34.331837020068356,3.310431,34.24879452006836C3.344789,34.17005432006836,3.3723235,34.08852692006836,3.3927345,34.00510212006836C3.4062874,33.96255222006836,3.4013128,33.91629092006836,3.3790178,33.877563600068356C3.3481309,33.84481364006836,3.3052437,33.825915690068356,3.2601342,33.82517898006836C3.1644628,33.81518441006836,3.0682402,33.81137562006836,2.9720733,33.81379437006836L2.7663159,33.81379437006836L3.1412539,32.90280089236836L3.7631025,32.90280089236836C3.9863477,32.89421028646836,4.2095056,32.92190039506836,4.4238167,32.98478696506836C4.5575504,33.02178357006836,4.6685262,33.114883210068356,4.727879,33.23986402006836C4.7734942,33.36657545006836,4.7782874,33.50431013006836,4.7415957,33.63387120006836C4.6903987,33.84154701006836,4.6207757,34.04428112006836,4.5335498,34.23968272006836C4.4334865,34.50057722006836,4.3005862,34.74775862006836,4.1380372,34.97531252006836C3.9719856,35.18417672006836,3.750087,35.34207442006836,3.4978981,35.43080902006836L3.4978981,36.94533442006836L2.2313409,36.94533442006836L2.2747793,35.59478832006836Z" fill="#3037D8" fill-opacity="1"/><path d="M14.286515529177246,36.78591726298828C14.171814439177247,36.73314336298828,14.075504599177247,36.64750836298828,14.009886379177246,36.539952062988284C13.944798391177246,36.42065666298828,13.907304255177246,36.28837106298828,13.900145902177247,36.152776962988284C13.884377991277246,35.99754836298828,13.884377991277246,35.84113116298828,13.900145902177247,35.68589566298828C13.916151030177247,35.51053186298828,13.950442746177247,35.26228686298828,13.996169689177247,34.93888116298828Q14.085335139177246,34.33079006298828,14.160776909177246,34.00967096298828C14.199122249177247,33.81723022298828,14.271089499177247,33.632997872988284,14.373392519177246,33.46534896298828C14.477097929177246,33.30747223298828,14.622713919177246,33.181330712988284,14.794053909177245,33.10095016298828C15.023511869177247,33.00359690898828,15.267684269177247,32.94509599398828,15.516496269177246,32.92785917598828L15.221573569177245,34.93887426298828C15.189563269177246,35.16662266298828,15.162129969177247,35.38298626298828,15.139273369177246,35.59251096298828C15.120875269177246,35.70767096298828,15.125535869177247,35.82532616298828,15.152990069177246,35.93868616298828C15.172267469177246,36.00800176298828,15.232087869177246,36.05856536298828,15.303880669177246,36.06622456298828C15.416495669177246,36.08414956298828,15.530519969177247,36.09176706298828,15.644523369177247,36.08900096298828C15.757612869177246,36.09182956298828,15.870757969177246,36.08573416298828,15.982884669177245,36.07078406298828L15.852569069177246,36.96583366298828C15.797744169177246,36.96894736298828,15.742786769177247,36.96894736298828,15.687961769177246,36.96583366298828L15.516496269177246,36.96583366298828C15.098242069177246,36.99590776298828,14.678438839177247,36.93450116298828,14.286515529177246,36.78591726298828ZM16.408115869177244,34.93888116298828C16.456124269177245,34.60409076298828,16.485846069177246,34.38317466298828,16.497281269177247,34.28068506298828C16.513935369177247,34.16608106298828,16.508500369177245,34.04935726298828,16.481276069177245,33.93678286298828C16.458035969177246,33.867856442988284,16.397992369177246,33.81771671298828,16.325815669177246,33.80696457298828C16.212816969177247,33.79314035298828,16.099001869177247,33.78705191298828,15.985172969177246,33.78874778298828C15.871902269177246,33.78475135298828,15.758519769177246,33.79238277298828,15.646811869177245,33.81152397298828L15.777127269177246,32.91191512178828C15.831184769177247,32.90884307649828,15.885381669177246,32.90884307649828,15.939445969177246,32.91191512178828L16.115481569177245,32.91191512178828C16.460554569177248,32.90121161568828,16.805564869177246,32.93489290998828,17.141986569177245,33.01212496298828C17.342427269177247,33.05498764298828,17.518051169177248,33.174352582988284,17.631238269177246,33.34463566298828C17.721631769177247,33.51771968298828,17.761246669177247,33.71268338298828,17.745548769177248,33.90717441298828C17.725733969177245,34.25500366298828,17.688344669177248,34.60161646298828,17.633526769177244,34.94570636298828C17.574083069177245,35.35109826298828,17.519216269177246,35.66083976298828,17.468919469177244,35.879476262988284C17.429974069177245,36.07030436298828,17.358027669177247,36.25294516298828,17.256303769177247,36.41923876298828C17.153289069177248,36.57968016298828,17.006598669177247,36.70764256298828,16.833353969177246,36.78819016298828C16.604698469177247,36.88484116298828,16.361139969177245,36.94184116298828,16.113200169177247,36.95672176298828L16.408115869177244,34.93888116298828Z" fill="#3037D8" fill-opacity="1"/><path d="M27.79111095800293,32.90052795410156L29.00508657800293,32.90052795410156L28.66215547800293,36.97267005410156L27.45960807800293,36.97267005410156L27.79111095800293,32.90052795410156ZM28.97994157800293,36.06622915410156L29.233707278002928,36.06622915410156C29.319000578002928,36.07072595410156,29.40446827800293,36.07072595410156,29.48976157800293,36.06622915410156C29.53786757800293,36.064491554101565,29.58455727800293,36.049513554101566,29.62464687800293,36.02295635410156C29.65533847800293,35.996489554101565,29.67758797800293,35.96165445410156,29.68866037800293,35.92274645410156C29.72081707800293,35.79712625410156,29.731638478002928,35.667029854101564,29.72067067800293,35.537851054101566C29.71820787800293,35.49888065410156,29.70105837800293,35.46227335410156,29.67266227800293,35.43536165410156C29.55355877800293,35.38285875410156,29.42248977800293,35.36319635410156,29.29315097800293,35.37842445410156L29.04624367800293,35.37842445410156L29.12397387800293,34.46743095410156L29.33430807800293,34.46743095410156C29.41960827800293,34.471879154101565,29.505075978002928,34.471879154101565,29.59036207800293,34.46743095410156C29.63800767800293,34.465074754101565,29.68399287800293,34.44927665410156,29.72295907800293,34.42187845410156C29.75422287800293,34.39782345410156,29.77670957800293,34.36421855410156,29.78697277800293,34.32622115410156C29.80403137800293,34.269193654101564,29.81400827800293,34.21029665410156,29.81669447800293,34.15085735410156C29.82373427800293,34.09108455410156,29.82373427800293,34.030700054101565,29.81669447800293,33.970934254101564C29.81377097800293,33.933395554101565,29.79660777800293,33.89837974410156,29.76868607800293,33.873004074101566C29.73271297800293,33.84487611410156,29.68866037800293,33.828918154101565,29.64294747800293,33.827451644101565C29.58579227800293,33.827451644101565,29.501203778002928,33.827451644101565,29.38918177800293,33.827451644101565L29.17884757800293,33.827451644101565L29.25428937800293,32.91645810710156L29.94015167800293,32.91645810710156Q31.14726897800293,32.91645810710156,31.060391878002928,33.93904615410156C31.05516627800293,34.17477345410156,30.97513367800293,34.402792954101564,30.83177117800293,34.590403054101564C30.67859907800293,34.75040665410156,30.47853517800293,34.85803245410156,30.26021937800293,34.89786485410156L30.26021937800293,34.922913754101565C30.46517417800293,34.953953954101564,30.65406827800293,35.05164785410156,30.79747937800293,35.20076705410156C30.92564607800293,35.40997885410156,30.97279617800293,35.65858535410156,30.93007637800293,35.89995625410156C30.92226217800293,36.20911385410156,30.78856297800293,36.50180625410156,30.55970497800293,36.710760854101565C30.28057817800293,36.914231754101564,29.93744447800293,37.01120285410156,29.59263657800293,36.98406175410156L28.90677437800293,36.98406175410156L28.97994157800293,36.06622915410156Z" fill="#3037D8" fill-opacity="1"/><path d="M41.43751913255859,36.788196310791015C41.3129107925586,36.73345561079102,41.20433548255859,36.648029110791015,41.122021402558595,36.539951610791015C41.040551542558596,36.42410321079102,40.983040522558596,36.29326341079101,40.952844284558594,36.15505621079102C40.9172897335586,36.00554751079102,40.8958565405586,35.853050510791014,40.88883074955859,35.69955941079102C40.88883074955859,35.52419571079101,40.87511406275859,35.27367091079102,40.872825622558594,34.95254491079102C40.872825622558594,34.547153110791015,40.872825622558594,34.237411710791015,40.89568909255859,34.02333461079102C40.90459866055859,33.83537692079101,40.948797650558596,33.650748370791014,41.02600459255859,33.479012670791015C41.105451152558594,33.32209510079102,41.233792182558595,33.195050030791016,41.391799212558595,33.116893590791015C41.6076451525586,33.01727453079101,41.84022879255859,32.958579003791016,42.07766142255859,32.94380260279102L42.07766142255859,34.95254491079102C42.07766142255859,35.180293310791015,42.07766142255859,35.39665701079102,42.09366652255859,35.60390211079102C42.09394562255859,35.72239801079102,42.116432422558596,35.83980321079102,42.15996852255859,35.95007701079101C42.189920622558596,36.02023361079102,42.25540622255859,36.068941610791015,42.33143412255859,36.07761551079101C42.4448305225586,36.09541531079102,42.55960142255859,36.10304001079101,42.67436532255859,36.10039191079102C42.78669412255859,36.103241410791014,42.89907882255859,36.09715291079102,43.010437922558594,36.08217501079102L43.010437922558594,36.977224310791016C42.95638062255859,36.980351910791015,42.902183522558595,36.980351910791015,42.848119222558594,36.977224310791016L42.67436532255859,36.977224310791016C42.253431822558596,36.999395810791015,41.832414622558595,36.93505001079102,41.43751913255859,36.788196310791015ZM43.26648522255859,34.94343301079102C43.26648522255859,34.60864271079102,43.26648522255859,34.38772651079102,43.26648522255859,34.28523691079101C43.266192222558594,34.167262110791015,43.24290302255859,34.05046181079101,43.19790172255859,33.94133471079102C43.16563342255859,33.87166458079101,43.10031512255859,33.822866320791015,43.024147722558595,33.811516400791014C42.91037462255859,33.79778260079102,42.795806022558594,33.79170102079102,42.681216622558594,33.79329961079102C42.568699322558594,33.78909469079102,42.45604942255859,33.79672611079101,42.34514382255859,33.81607586079102L42.34514382255859,32.90508232009102C42.399201322558596,32.902010274581016,42.45339822255859,32.902010274581016,42.50746262255859,32.90508232009102L42.683498022558595,32.90508232009102C43.03397132255859,32.89464292579102,43.384339822558594,32.92908180479102,43.72600822255859,33.00757187079102C43.938972722558596,33.053103480791016,44.12958292255859,33.170571000791014,44.265549622558595,33.34008256079102C44.37949732255859,33.505639370791016,44.44805982255859,33.697982790791016,44.46444872255859,33.89806884079101C44.496737922558594,34.244035410791014,44.511236222558594,34.59142671079101,44.50788712255859,34.93888071079102C44.50788712255859,35.34199281079101,44.50788712255859,35.65173411079102,44.48731212255859,35.870370610791014C44.47804692255859,36.057063310791015,44.43303852255859,36.240274210791014,44.354715122558595,36.410133110791016C44.27748732255859,36.571081910791015,44.14771602255859,36.70115731079102,43.986639222558594,36.779084410791015C43.77050712255859,36.87684771079102,43.53783962255859,36.93324991079102,43.3007769225586,36.94534351079102L43.26648522255859,34.94343301079102Z" fill="#3037D8" fill-opacity="1"/><path d="M54.32940319781914,32.905086517333984L57.71298763461914,32.905086517333984L57.71298763461914,33.85024088733398L54.32712173461914,33.85024088733398L54.32940319781914,32.905086517333984ZM55.41306343461914,34.08710111733399L56.61561083461914,34.08710111733399L56.601894134619144,36.97950841733398L55.40163513461914,36.97950841733398L55.41306343461914,34.08710111733399Z" fill="#3037D8" fill-opacity="1"/><path d="M68.78515625,32.91419219970703L69.98770365,32.91419219970703L70.30777825,36.97950219970703L69.10751933,36.97950219970703L68.78515625,32.91419219970703Z" fill="#3037D8" fill-opacity="1"/><path d="M82.53438342529297,36.85424513691406C82.31370246529296,36.800915236914065,82.11346393529297,36.68455983691406,81.95825469529296,36.519454736914064C81.80946418529297,36.34927603691406,81.70157262529297,36.14754273691406,81.64275690529297,35.92958733691406C81.55226585529297,35.60643173691406,81.48729647529296,35.27670813691406,81.44843485929297,34.94343993691406C81.40628011529297,34.652186536914066,81.38261429499296,34.358569836914064,81.37756298214296,34.06433463691406C81.37152094209297,33.87197041691406,81.40256837729297,33.68023860691406,81.46901686529297,33.499516186914065C81.52959075529297,33.34446129691406,81.64285460529297,33.215504916914064,81.78909149529296,33.13511740691406C81.98310655529296,33.03770855691406,82.19432681529297,32.97890877691406,82.41093322529296,32.96202642991406L82.67385272529297,34.94343993691406C82.70357452529296,35.15752413691406,82.73329622529297,35.36249613691406,82.76758112529296,35.56063603691406C82.78467462529296,35.68433113691406,82.83262022529297,35.801784736914065,82.90703642529297,35.90225863691406C82.97695932529297,35.982938036914064,83.07499942529297,36.03421063691406,83.18138412529296,36.04574133691406C83.34764482529297,36.072354036914064,83.51599862529297,36.083787436914065,83.68435242529297,36.079902136914065C83.87760022529297,36.08217473691406,84.07079192529297,36.07228443691406,84.26276972529297,36.05029363691406C84.33951612529297,36.046408436914064,84.41589972529297,36.03727583691406,84.49139042529296,36.022964936914065L84.60112402529298,36.85197233691406C84.38476872529297,36.89601663691406,84.16546912529297,36.924179336914065,83.94498352529297,36.93623803691406C83.81009122529296,36.94762273691406,83.66149592529297,36.95445493691406,83.48774192529297,36.95445493691406C83.16696962529296,36.96155123691406,82.84660192529297,36.92787693691406,82.53438342529297,36.85424513691406ZM82.66241052529297,32.939250203514064C82.71187712529297,32.93596269813406,82.76152502529297,32.93596269813406,82.81101952529296,32.939250203514064L82.95961462529297,32.939250203514064C83.22581322529297,32.939834031014065,83.49164912529297,32.95885707991406,83.75521042529297,32.99618729591406C83.89010282529297,33.01668381691406,83.98383112529297,33.03490757191406,84.06841972529297,33.053124386914064L84.17815332529297,33.87074017691406L83.87179542529297,33.843411506914066C83.70708342529296,33.82472204691406,83.54147842529296,33.81483870691406,83.37569212529297,33.81380307691406C83.22023172529296,33.81380307691406,83.09449312529297,33.81380307691406,83.00303922529297,33.82746743691406C82.92517652529297,33.834167536914066,82.84841592529297,33.85022282691406,82.77441842529296,33.87529265691406L82.66241052529297,32.939250203514064Z" fill="#3037D8" fill-opacity="1"/><path d="M95.95214474570312,36.93851038867187C95.81998734570313,36.92791798867187,95.68863914570312,36.908894988671875,95.55892374570313,36.88157318867187L95.23884904570312,36.036628688671875C95.48118650570312,36.054845588671874,95.75782264570313,36.07534908867188,96.06645514570313,36.09356598867188C96.26077714570313,36.09356598867188,96.39795794570313,36.104950388671874,96.47796964570313,36.104950388671874C96.61914134570313,36.108821888671876,96.76042464570313,36.10349078867188,96.90091254570312,36.089006388671876L97.15011524570312,36.999999988671874L97.08609464570313,36.999999988671874C96.70731594570313,36.99882508867188,96.32883034570312,36.978307688671876,95.95214474570312,36.93851038867187ZM97.06552674570312,35.77016018867187C97.05021934570313,35.708322988671874,97.02718134570313,35.648640588671874,96.99694324570312,35.59251668867188C96.97944494570312,35.559801588671874,96.95118834570313,35.53407148867188,96.91693164570313,35.519635488671874C96.86768814570313,35.501689688671874,96.81610064570313,35.49094458867187,96.76375964570312,35.48774738867188L96.00016014570312,35.398922188671875C95.62900014570313,35.38715528867188,95.27476644570312,35.241469388671874,95.00337696570313,34.988977888671876C94.90689966570312,34.885640488671875,94.82949736570312,34.766136488671876,94.77475620570313,34.635970688671875C94.70350757570313,34.47048338867187,94.64466395570312,34.29996408867188,94.59871375570313,34.125816688671875Q94.42038287570313,33.48356461867188,94.68330231570313,33.201158848671874C94.90402516570313,33.01582833367188,95.18581026570313,32.91846813287187,95.47433513570313,32.92785802667188L95.79668424570312,34.091648788671876C95.80804274570312,34.134879788671874,95.82178734570313,34.17745758867188,95.83783434570313,34.21918738867188C95.84862064570312,34.248065988671875,95.86406764570313,34.27499148867187,95.88356124570312,34.29890068867188C95.90214784570313,34.323775888671875,95.92881384570312,34.341478388671874,95.95901004570312,34.34900558867187C96.00138804570312,34.36135638867187,96.04518934570312,34.36824408867187,96.08932554570312,34.36950208867187L96.94665334570313,34.46743228867187C97.09651824570312,34.48484978867187,97.24480624570313,34.513783888671874,97.39017824570313,34.55397768867188C97.50680494570312,34.587394988671875,97.61613364570313,34.642239888671874,97.71252724570313,34.715677188671876C97.98796344570313,34.97540398867187,98.17636894570313,35.313391488671876,98.25206904570312,35.683607588671876C98.38696124570312,36.17326518867188,98.37095614570312,36.517167588671875,98.19949054570313,36.71302768867187C98.11798594570313,36.80641938867188,98.01062464570313,36.87376118867188,97.89085814570312,36.90661528867187C97.73464414570313,36.95242498867187,97.57343484570312,36.97919078867187,97.41076014570312,36.986328588671874L97.06552674570312,35.77016018867187ZM96.81632394570312,33.813802478671874C96.62885334570312,33.813802478671874,96.48025814570312,33.802417878671875,96.35908234570313,33.802417878671875C96.23790664570312,33.802417878671875,96.08017184570312,33.802417878671875,95.95441914570313,33.813802478671874L95.70521644570313,32.916473388671875L95.85382544570312,32.916473388671875C96.20148694570312,32.918322176071875,96.54877184570313,32.93961798167187,96.89404704570312,32.980242654671876C97.01064584570312,32.996186703671874,97.14324994570312,33.01668322867187,97.28955654570312,33.04401191867188L97.63019914570313,33.87757175867188C97.50447464570313,33.850243088671874,97.15469214570312,33.82974654867188,96.81632394570312,33.802417878671875L96.81632394570312,33.813802478671874Z" fill="#3037D8" fill-opacity="1"/><path d="M21.03998789616699,11.699433267961426C21.268608796166994,11.155114791961426,21.645831596166992,11.182443483631426,21.96818759616699,11.182443483631426L24.149231396166993,11.182443483631426C24.750505496166994,11.182443483631426,24.924259196166993,11.309982017961426,24.924259196166993,11.897573227961425L24.924259196166993,16.038036797961425C24.924259196166993,16.623351597961424,24.62933639616699,16.666621197961426,24.028062796166992,16.666621197961426L19.876309156166993,16.666621197961426C19.27274700616699,16.666621197961426,19.01898132616699,16.545914697961425,19.24303217216699,16.001596497961426L21.03998789616699,11.699433267961426Z" fill="#2DA6EE" fill-opacity="1"/><path d="M39.67252598836517,30.440849L36.055742988365175,21.608767C35.78275098836517,20.822796,35.62864898836517,20.00074,35.59850198836517,19.169584L35.59850198836517,11.166503C35.582616988365174,10.326479,35.73817298836517,9.491991,36.055742988365175,8.7136517L39.656522988365175,0L16.643553988365174,0C14.256751988365174,0,13.568601988365174,1.623847,13.568601988365174,1.623847L1.5065749883651733,30.436296L10.880026188365173,30.436296L11.819654988365173,28.192974L27.038940988365173,28.192974L27.038940988365173,30.440849L39.67252598836517,30.440849ZM25.751811988365173,19.144527C24.018869988365175,19.144527,19.387010988365173,19.144527,16.78073398836517,19.144527C15.486739988365173,19.144527,15.900543988365174,18.461283,15.900543988365174,18.461283L19.508170988365173,9.8364534C19.508170988365173,9.8364534,19.832816988365174,8.7136555,20.923333988365172,8.7136555L26.206764988365173,8.7136555C26.206764988365173,8.7136555,27.036659988365173,8.6954346,27.036659988365173,9.7817955L27.036659988365173,18.449898C27.022935988365173,19.174137,26.531402988365173,19.149088,25.751811988365173,19.144527Z" fill="#3037D8" fill-opacity="1"/><path d="M57.710767294433595,21.606487L50.67153229443359,21.606487C49.39125529443359,21.606487,48.48591929443359,20.342487,48.48591929443359,20.342487C48.48591929443359,20.342487,47.066185994433596,18.105997,47.066185994433596,16.668905L47.066185994433596,13.935924C47.066185994433596,12.501108,48.7168282944336,9.9389391,48.7168282944336,9.9389391C48.7168282944336,9.9389391,49.402691294433595,8.722764,50.724118294433595,8.722764L57.71762629443359,8.722764L57.71762629443359,0L42.42289929443359,0L38.80611738443359,8.7159319C38.518729774433595,9.4971418,38.358204068433594,10.319,38.330589294433594,11.150562L38.330589294433594,19.149088C38.36936021643359,19.989008,38.52951614443359,20.81896,38.80611738443359,21.613327L42.42289929443359,30.436296L57.71762629443359,30.436296L57.710767294433595,21.606487Z" fill="#3037D8" fill-opacity="1"/><path d="M92.49767682373047,21.60876670792912L83.49916682373046,21.60876670792912L71.29538982373047,21.60876670792912C70.26201882373047,21.60876670792912,70.18658442373047,20.97562670792912,70.18658442373047,20.75699070792912L70.18658442373047,19.834612707929118C70.18658442373047,19.64330570792912,70.26203382373046,19.139982707929118,71.29538982373047,19.139982707929118L91.45287682373046,19.139982707929118L88.78487782373047,12.79718170792912C88.78487782373047,12.79718170792912,87.92526082373047,11.18244670792912,86.61297982373047,11.18244670792912L71.29996682373047,11.18244670792912C70.26659582373047,11.18244670792912,70.18887332373046,10.870432707929119,70.18887332373046,10.58802370792912L70.18887332373046,9.38095610792912C70.18887332373046,9.153208207929119,70.35576182373046,8.718207807929119,71.29767782373047,8.718207807929119L88.29791482373047,8.718207807929119L85.19781682373048,1.2958888079291195C84.92145882373046,0.5582156879291195,84.23542982373047,0.051456761929119466,83.44658882373047,0.0022797079291194677L60.20043182373047,0.0022797079291194677L60.20043182373047,30.43629670792912L97.38787882373046,30.43629670792912L94.20090482373047,22.84771970792912C94.20090482373047,22.84771970792912,93.61563482373046,21.60876670792912,92.49767682373047,21.60876670792912Z" fill="#3037D8" fill-opacity="1"/></svg>